<?xml version="1.0" standalone="no"?>
<!DOCTYPE svg PUBLIC "-//W3C//DTD SVG 1.1//EN" "http://www.w3.org/Graphics/SVG/1.1/DTD/svg11.dtd" >
<svg>
<metadata>
Created by FontForge 20090914 at Fri Oct  3 23:05:00 2014
 By www-data
Copyright (c) 1991 Adobe Systems Incorporated.  All Rights Reserved.Kabel is a trademark of Linotype-Hell AG and/or its subsidiaries.
</metadata>
<defs>
<font id="Kabel-Heavy" horiz-adv-x="407" >
  <font-face 
    font-family="Kabel-Heavy"
    font-weight="900"
    font-stretch="normal"
    units-per-em="1000"
    panose-1="2 11 10 0 0 0 0 0 0 0"
    ascent="800"
    descent="-200"
    x-height="382"
    cap-height="724"
    bbox="-56 -250 1110 931.999"
    underline-thickness="50"
    underline-position="-50"
    unicode-range="U+0020-U+2122"
  />
<missing-glyph horiz-adv-x="502" 
d="M-1 0h500v500h-500v-500zM9 10v480h480v-480h-480z" />
    <glyph glyph-name=".notdef" horiz-adv-x="502" 
d="M-1 0h500v500h-500v-500zM9 10v480h480v-480h-480z" />
    <glyph glyph-name="space" unicode=" " horiz-adv-x="260" 
 />
    <glyph glyph-name="exclam" unicode="!" horiz-adv-x="260" 
d="M75 152h110v572l-110 -8v-564zM75 0h110v110h-110v-110z" />
    <glyph glyph-name="quotedbl" unicode="&#x22;" 
d="M243 457h84v263h-84v-263zM80 457h84v263h-84v-263z" />
    <glyph glyph-name="numbersign" unicode="#" horiz-adv-x="520" 
d="M188 243l20 129h124l-20 -129h-124zM274 0h68l28 179h104v64h-94l20 129h103v64h-93l28 179h-68l-28 -179h-124l28 179h-68l-28 -179h-104v-64h94l-20 -129h-103v-64h93l-28 -179h68l28 179h124z" />
    <glyph glyph-name="dollar" unicode="$" horiz-adv-x="520" 
d="M230 442c-22 10.667 -39.001 23.168 -51.001 37.501s-18 32.166 -18 53.499c0 24 6.33301 44.833 19 62.5s29.334 30.167 50.001 37.5v-191zM293.999 294.001c24.667 -11.333 43.667 -24.501 57 -39.501s20 -34.833 20 -59.5c0 -25.333 -7 -48.166 -21 -68.499
s-32.667 -34.5 -56 -42.5v210zM229.999 -64l64.001 -0.00390625v50c54.667 8.66699 99.5 33.167 134.5 73.5s52.5 87.833 52.5 142.5c0 32.667 -5.16699 60.834 -15.5 84.501s-24.333 43.167 -42 58.5s-36.334 28 -56.001 38s-44.167 20.667 -73.5 32v225
c20.667 -4 40.167 -13.5 58.5 -28.5s36.5 -35.5 54.5 -61.5l70 73c-23.333 34 -50 61 -80 81s-64.333 31.333 -103 34v46h-64v-49c-52 -9.33301 -94.833 -32.666 -128.5 -69.999s-50.5 -82.333 -50.5 -135c0 -33.333 5 -61.666 15 -84.999s23.5 -42.666 40.5 -57.999
s35 -27.833 54 -37.5s42.167 -19.5 69.5 -29.5v-236c-42 11.333 -79.667 43.333 -113 96l-78 -77c48 -72 111.667 -112.333 191 -121v-46z" />
    <glyph glyph-name="percent" unicode="%" horiz-adv-x="648" 
d="M22 453c0 -50 11.833 -89.5 35.5 -118.5s53.5 -43.5 89.5 -43.5s65.833 14.5 89.5 43.5s35.5 68.5 35.5 118.5s-11.833 89.5 -35.5 118.5s-53.5 43.5 -89.5 43.5s-65.833 -14.5 -89.5 -43.5s-35.5 -68.5 -35.5 -118.5zM90 453c0 32.667 5.16699 57.834 15.5 75.501
s24.166 26.5 41.499 26.5s31.166 -8.83301 41.499 -26.5s15.5 -42.834 15.5 -75.501s-5.16699 -57.834 -15.5 -75.501s-24.166 -26.5 -41.499 -26.5s-31.166 8.83301 -41.499 26.5s-15.5 42.834 -15.5 75.501zM376 148c0 -50 11.833 -89.5 35.5 -118.5
s53.5 -43.5 89.5 -43.5s65.833 14.5 89.5 43.5s35.5 68.5 35.5 118.5s-11.833 89.5 -35.5 118.5s-53.5 43.5 -89.5 43.5s-65.833 -14.5 -89.5 -43.5s-35.5 -68.5 -35.5 -118.5zM444 148c0 32.667 5.16699 57.834 15.5 75.501s24.166 26.5 41.499 26.5
s31.166 -8.83301 41.499 -26.5s15.5 -42.834 15.5 -75.501s-5.16699 -57.834 -15.5 -75.501s-24.166 -26.5 -41.499 -26.5s-31.166 8.83301 -41.499 26.5s-15.5 42.834 -15.5 75.501zM104 -25h68l373 651h-68z" />
    <glyph glyph-name="ampersand" unicode="&#x26;" horiz-adv-x="556" 
d="M244 374c-13.333 15.333 -24 30.167 -32 44.5s-12 27.5 -12 39.5c0 18.667 5.83301 33.167 17.5 43.5s25.5 15.5 41.5 15.5c14.667 0 27.667 -5.33301 39 -16s17 -23.667 17 -39c0 -12 -5.16699 -25.167 -15.5 -39.5s-28.833 -30.5 -55.5 -48.5zM373 241.001l-69 69.001
c32 17.333 57.5 40.666 76.5 69.999s28.5 58 28.5 86c0 17.333 -3.66699 34 -11 50s-17.833 30.5 -31.5 43.5s-29.834 23.167 -48.501 30.5s-38.667 11 -60 11c-20.667 0 -40.167 -3.66699 -58.5 -11s-34.5 -17.5 -48.5 -30.5s-25 -28 -33 -45s-12 -35.167 -12 -54.5
c0 -24 5.33301 -48 16 -72s25.667 -45.667 45 -65c-43.333 -25.333 -76.666 -53.5 -99.999 -84.5s-35 -63.5 -35 -97.5c0 -42.667 14.667 -78.834 44 -108.501s65.333 -44.5 108 -44.5c34.667 0 67 8.83301 97 26.5s61 46.834 93 87.501l106 -114l73 66l-114 120l78 86
l-59 74zM310 168.002c-28 -32 -50.5 -54.332 -67.5 -66.999s-33.5 -19 -49.5 -19c-16.667 0 -31.334 6.33301 -44.001 19s-19 26.667 -19 42c0 14.667 6.83301 30.167 20.5 46.5s39.834 38.166 78.501 65.499z" />
    <glyph glyph-name="quotesingle" unicode="'" horiz-adv-x="240" 
d="M78 457h84v263h-84v-263z" />
    <glyph glyph-name="parenleft" unicode="(" horiz-adv-x="370" 
d="M302 743c-76 -69.333 -133.667 -142.833 -173 -220.5s-59 -157.167 -59 -238.5s19.667 -160.833 59 -238.5s97 -151.167 173 -220.5l65 74c-60 53.333 -107.5 113.5 -142.5 180.5s-52.5 135.167 -52.5 204.5c0 70 17.5 138.333 52.5 205s82.5 126.667 142.5 180z" />
    <glyph glyph-name="parenright" unicode=")" horiz-adv-x="370" 
d="M68 -175c76 69.333 133.667 142.833 173 220.5s59 157.167 59 238.5s-19.667 160.833 -59 238.5s-97 151.167 -173 220.5l-65 -74c60 -53.333 107.5 -113.333 142.5 -180s52.5 -135 52.5 -205c0 -69.333 -17.5 -137.5 -52.5 -204.5s-82.5 -127.167 -142.5 -180.5z" />
    <glyph glyph-name="asterisk" unicode="*" horiz-adv-x="278" 
d="M81 492l58 76l58 -76l39 33l-60 67l83 30l-18 44l-77 -30v84h-50v-84l-77 30l-18 -44l83 -30l-60 -67z" />
    <glyph glyph-name="plus" unicode="+" horiz-adv-x="600" 
d="M258 295h-211v-84h211v-211h84v211h211v84h-211v211h-84v-211z" />
    <glyph glyph-name="comma" unicode="," horiz-adv-x="260" 
d="M-10 -121h90l126 263h-110z" />
    <glyph glyph-name="hyphen" unicode="-" horiz-adv-x="315" 
d="M47 164h221v90h-221v-90z" />
    <glyph glyph-name="period" unicode="." horiz-adv-x="260" 
d="M75 0h110v110h-110v-110z" />
    <glyph glyph-name="slash" unicode="/" 
d="M12 -18h84l299 756h-84z" />
    <glyph glyph-name="zero" unicode="0" horiz-adv-x="520" 
d="M147 301c0 68 10.833 120.333 32.5 157s48.5 55 80.5 55s58.833 -18.333 80.5 -55s32.5 -89 32.5 -157c0 -68.667 -10.833 -121.334 -32.5 -158.001s-48.5 -55 -80.5 -55s-58.833 18.333 -80.5 55s-32.5 89.334 -32.5 158.001zM37 301c0 -50.667 6 -96.002 18 -136.002
s28.333 -73.167 49 -99.5s44.5 -46.166 71.5 -59.499s55.167 -20 84.5 -20s57.5 6.66699 84.5 20s50.833 33.166 71.5 59.499s37 59.5 49 99.5s18 85.333 18 136s-6 95.834 -18 135.501s-28.333 72.834 -49 99.501s-44.5 46.5 -71.5 59.5s-55.167 19.5 -84.5 19.5
s-57.5 -6.66699 -84.5 -20s-50.833 -33 -71.5 -59s-37 -59 -49 -99s-18 -85.333 -18 -136z" />
    <glyph glyph-name="one" unicode="1" horiz-adv-x="333" 
d="M143 -4l105.999 8.00098v621c-30 -25.333 -61.667 -49 -95 -71l-120 -76c-21.333 -12.667 -32.666 -19.334 -33.999 -20.001l43 -76l100 63v-449z" />
    <glyph glyph-name="two" unicode="2" horiz-adv-x="444" 
d="M219 343c-30 7.33301 -52.666 18.998 -67.999 34.998s-23 35 -23 57c0 24 8.66699 43 26 57s38.666 21 63.999 21c26 0 47.667 -7.33301 65 -22s26 -34.667 26 -60c0 -18 -3.5 -36.833 -10.5 -56.5s-17.5 -38.5 -31.5 -56.5l-246 -318h371l31 98h-206l91 114
c38 47.333 65.333 88.333 82 123s25 66.667 25 96c0 26 -4.66699 50.333 -14 73s-22.833 42.334 -40.5 59.001s-38 29.5 -61 38.5s-47.5 13.5 -73.5 13.5c-28 0 -54.333 -4.83301 -79 -14.5s-46 -23 -64 -40s-32 -36.667 -42 -59s-15 -45.833 -15 -70.5
c0 -39.333 12 -72.166 36 -98.499s57.667 -46.833 101 -61.5z" />
    <glyph glyph-name="three" unicode="3" horiz-adv-x="426" 
d="M89 450c10 22 23.835 38.668 41.502 50.001s36.167 17 55.5 17c24.667 0 45.5 -7.33301 62.5 -22s25.5 -34.667 25.5 -60c0 -26 -8.5 -46.167 -25.5 -60.5s-43.167 -21.5 -78.5 -21.5h-42v-94h47c31.333 0 55.666 -8 72.999 -24s26 -37 26 -63
c0 -24.667 -8.33301 -45.5 -25 -62.5s-38.334 -25.5 -65.001 -25.5c-41.333 0 -77.333 23 -108 69l-66 -75c22 -28.667 48.667 -51.167 80 -67.5s64.666 -24.5 99.999 -24.5c28.667 0 55.167 4.66699 79.5 14s45.333 22.333 63 39s31.334 36 41.001 58s14.5 45.667 14.5 71
c0 31.333 -8.33301 59 -25 83s-41 42.333 -73 55c60 28 90 73.667 90 137c0 50.667 -18 92 -54 124s-80 48 -132 48c-34.667 0 -67.5 -8.33301 -98.5 -25s-58.167 -42.334 -81.5 -77.001z" />
    <glyph glyph-name="four" unicode="4" horiz-adv-x="462" 
d="M440 238h-74v363h-84l-302 -457h288v-148l98 8v140h74v94zM152 238l114 189h2v-189h-116z" />
    <glyph glyph-name="five" unicode="5" 
d="M10 39c23.333 -18 48.498 -31.332 75.498 -39.999s54.5 -13 82.5 -13c29.333 0 56.833 5.66699 82.5 17s48.334 27.166 68.001 47.499s35 43.333 46 69s16.5 52.5 16.5 80.5c0 30.667 -5.83301 59.334 -17.5 86.001s-27.834 49.667 -48.501 69
s-44.167 34.166 -70.5 44.499s-54.166 15.5 -83.499 15.5c-6 0 -12.333 -1.33301 -19 -4v92h182l45 98h-325v-317c34.667 24.667 71.667 37 111 37c32 0 59.333 -11.5 82 -34.5s34 -52.167 34 -87.5s-11.5 -64 -34.5 -86s-50.5 -33 -82.5 -33
c-17.333 0 -33.666 3.5 -48.999 10.5s-32.333 16.833 -51 29.5z" />
    <glyph glyph-name="six" unicode="6" horiz-adv-x="500" 
d="M286 625c-50.667 -52.667 -91.834 -96.999 -123.501 -132.999s-57.667 -69.5 -78 -100.5s-35.333 -61.167 -45 -90.5s-14.5 -60 -14.5 -92c0 -63.333 20 -116.333 60 -159s95 -64 165 -64c34.667 0 65.834 6 93.501 18s51.334 28.5 71.001 49.5s34.667 45 45 72
s15.5 55.5 15.5 85.5c0 61.333 -18.5 110.666 -55.5 147.999s-83.833 56 -140.5 56c-24.667 0 -46.334 -3.66699 -65.001 -11l-2 2c40.667 47.333 95.667 104 165 170zM131 202.001c0 34 11.333 62.333 34 85s51 34 85 34c34.667 0 63.167 -11.333 85.5 -34
s33.5 -51 33.5 -85c0 -33.333 -11.333 -61.333 -34 -84s-51 -34 -85 -34s-62.333 11.333 -85 34s-34 50.667 -34 84z" />
    <glyph glyph-name="seven" unicode="7" horiz-adv-x="352" 
d="M73 -4l118 8l172 597h-383l-6 -98h255z" />
    <glyph glyph-name="eight" unicode="8" horiz-adv-x="444" 
d="M138 164c0 22 6.83301 40.5 20.5 55.5s35.5 27.167 65.5 36.5c30 -9.33301 51.833 -21.5 65.5 -36.5s20.5 -33.5 20.5 -55.5c0 -25.333 -8 -45.666 -24 -60.999s-36.667 -23 -62 -23c-24.667 0 -45.167 7.66699 -61.5 23s-24.5 35.666 -24.5 60.999zM138 438
c0 25.333 8.16699 45.5 24.5 60.5s36.833 22.5 61.5 22.5s45.167 -7.5 61.5 -22.5s24.5 -35.167 24.5 -60.5c0 -21.333 -6.83301 -39.666 -20.5 -54.999s-35.5 -27.666 -65.5 -36.999c-30 9.33301 -51.833 21.666 -65.5 36.999s-20.5 33.666 -20.5 54.999zM32 440
c0 -31.333 7.5 -58.833 22.5 -82.5s35.167 -42.5 60.5 -56.5c-25.333 -13.333 -45.5 -32 -60.5 -56s-22.5 -51.667 -22.5 -83c0 -23.333 4.83301 -45.666 14.5 -66.999s23.167 -40.166 40.5 -56.499s37.666 -29.166 60.999 -38.499s48.333 -14 75 -14
c26 0 50.667 4.66699 74 14s43.5 22.166 60.5 38.499s30.333 35.166 40 56.499s14.5 43.666 14.5 66.999c0 31.333 -7.5 59 -22.5 83s-35.167 42.667 -60.5 56c25.333 14 45.5 32.833 60.5 56.5s22.5 51.167 22.5 82.5c0 23.333 -4.83301 45.666 -14.5 66.999s-23 40 -40 56
s-37.167 28.667 -60.5 38s-48 14 -74 14c-26.667 0 -51.667 -4.66699 -75 -14s-43.666 -22.166 -60.999 -38.499s-30.833 -35 -40.5 -56s-14.5 -43.167 -14.5 -66.5z" />
    <glyph glyph-name="nine" unicode="9" horiz-adv-x="500" 
d="M214 -25c51.333 53.333 92.667 97.999 124 133.999s57.166 69.5 77.499 100.5s35.333 61.167 45 90.5s14.5 60 14.5 92c0 63.333 -20 116.333 -60 159s-95 64 -165 64c-34 0 -65 -6 -93 -18s-51.833 -28.5 -71.5 -49.5s-34.667 -45 -45 -72s-15.5 -55.5 -15.5 -85.5
c0 -61.333 18.5 -110.666 55.5 -147.999s83.833 -56 140.5 -56c24.667 0 46.334 3.66699 65.001 11l2 -2c-40.667 -47.333 -95.667 -104 -165 -170zM131.001 398.999c0 33.333 11.333 61.333 34 84s51 34 85 34s62.333 -11.333 85 -34s34 -50.667 34 -84
s-11.167 -61.5 -33.5 -84.5s-50.833 -34.5 -85.5 -34.5c-34 0 -62.333 11.5 -85 34.5s-34 51.167 -34 84.5z" />
    <glyph glyph-name="colon" unicode=":" horiz-adv-x="260" 
d="M75 272h110v110h-110v-110zM75 0h110v110h-110v-110z" />
    <glyph glyph-name="semicolon" unicode=";" horiz-adv-x="260" 
d="M-10 -121h90l126 263h-110zM96 272h110v110h-110v-110z" />
    <glyph glyph-name="less" unicode="&#x3c;" horiz-adv-x="600" 
d="M47 216l506 -225v84l-404 178l404 178v84l-506 -225v-74z" />
    <glyph glyph-name="equal" unicode="=" horiz-adv-x="600" 
d="M47 315h506v84h-506v-84zM47 107h506v84h-506v-84z" />
    <glyph glyph-name="greater" unicode="&#x3e;" horiz-adv-x="600" 
d="M451 253l-404 -178v-84l506 225v74l-506 225v-84z" />
    <glyph glyph-name="question" unicode="?" horiz-adv-x="520" 
d="M188 152l110.001 -0.00292969v79c0 18 3.16699 33.833 9.5 47.5s18.5 30.834 36.5 51.501c28 32 50.167 64.333 66.5 97s24.5 63.334 24.5 92.001c0 65.333 -18.333 116.833 -55 154.5s-83.334 56.5 -140.001 56.5c-54 0 -98 -16.333 -132 -49s-56.333 -80.667 -67 -144
l90 -34c6 44.667 17.5 77.334 34.5 98.001s40.167 31 69.5 31c26 0 48.167 -9.83301 66.5 -29.5s27.5 -45.834 27.5 -78.501c0 -24.667 -6.5 -48.167 -19.5 -70.5s-38.167 -54.166 -75.5 -95.499c-11.333 -12.667 -19.833 -22.667 -25.5 -30s-10 -14.833 -13 -22.5
s-5 -16.167 -6 -25.5s-1.5 -22.333 -1.5 -39v-89zM188.001 -0.00292969h110v110h-110v-110z" />
    <glyph glyph-name="at" unicode="@" horiz-adv-x="800" 
d="M505 401c0 -19.333 -3.66797 -40.166 -11.001 -62.499s-17.666 -43.333 -30.999 -63s-29.166 -35.5 -47.499 -47.5s-37.5 -18 -57.5 -18c-28.667 0 -50.834 9.16699 -66.501 27.5s-23.5 42.166 -23.5 71.499c0 22 3.83301 44.167 11.5 66.5s18.5 42.833 32.5 61.5
s30.167 33.5 48.5 44.5s37.833 16.5 58.5 16.5c24 0 44.333 -9.66699 61 -29s25 -42 25 -68zM534.999 496c-12.667 26 -29.168 45.167 -49.501 57.5s-43.833 18.5 -70.5 18.5c-32 0 -62 -7.66699 -90 -23s-52 -36.166 -72 -62.499s-35.5 -55.666 -46.5 -87.999
s-16.5 -65.166 -16.5 -98.499c0 -46 12.667 -84.833 38 -116.5s59.666 -47.5 102.999 -47.5c25.333 0 48.833 5.5 70.5 16.5s40.167 25.5 55.5 43.5h2c6 -40 29 -60 69 -60c22 0 47.333 6.5 76 19.5s56.334 32 83.001 57s48.5 55.833 65.5 92.5s25.5 77.334 25.5 122.001
c0 45.333 -9.5 87.166 -28.5 125.499s-45.333 71.333 -79 99s-72.5 49 -116.5 64s-90 22.5 -138 22.5c-53.333 0 -104 -9.5 -152 -28.5s-90.167 -45.833 -126.5 -80.5s-64.666 -75 -84.999 -121s-30.5 -95 -30.5 -147c0 -52.667 10.167 -102.167 30.5 -148.5
s48.666 -86.833 84.999 -121.5s78.833 -61.5 127.5 -80.5s100.667 -28.5 156 -28.5c66.667 0 128.334 15 185.001 45s102.334 72 137.001 126h-84c-24 -27.333 -57.667 -50.333 -101 -69s-87.666 -28 -132.999 -28s-87.833 7.66699 -127.5 23s-74.334 36.833 -104.001 64.5
s-52.667 59.834 -69 96.501s-24.5 75.667 -24.5 117c0 40.667 7.66699 79.667 23 117s37.166 70.166 65.499 98.499s62 50.666 101 66.999s81.167 24.5 126.5 24.5c37.333 0 73.166 -5.83301 107.499 -17.5s64.833 -28.667 91.5 -51s47.5 -49 62.5 -80
s22.5 -64.833 22.5 -101.5c0 -25.333 -4.16699 -50.333 -12.5 -75s-19.166 -46.834 -32.499 -66.501s-28 -35 -44 -46s-31.333 -16.5 -46 -16.5c-16.667 0 -25 7 -25 21c0 6.66699 1 14.167 3 22.5s4.33301 17.166 7 26.499l80 275h-74z" />
    <glyph glyph-name="A" unicode="A" horiz-adv-x="741" 
d="M282 359l98 177l86 -177h-184zM80 -18l154 287h272l146 -287l109 22l-381 734l-400 -723z" />
    <glyph glyph-name="B" unicode="B" horiz-adv-x="519" 
d="M56 0l211 -0.000976562c64.667 0 118 18.167 160 54.5s63 85.833 63 148.5c0 40 -10.5 74.333 -31.5 103s-51.167 48.667 -90.5 60v2c34.667 11.333 62.667 31.333 84 60s32 64.334 32 107.001c0 57.333 -19.667 102.5 -59 135.5s-96 49.5 -170 49.5h-199v-720z
M166 320.999l69 0.000976562c44.667 0 80 -10.5 106 -31.5s39 -49.5 39 -85.5c0 -34.667 -10.5 -62.334 -31.5 -83.001s-52.167 -31 -93.5 -31h-89v231zM166 630h107c28 0 51.833 -9.33301 71.5 -28s29.5 -42 29.5 -70c0 -37.333 -12.333 -67.833 -37 -91.5
s-57.667 -35.5 -99 -35.5h-72v225z" />
    <glyph glyph-name="C" unicode="C" horiz-adv-x="537" 
d="M505 724c-12 4.66699 -27.001 8.16602 -45.001 10.499s-36.667 3.5 -56 3.5c-55.333 0 -106.333 -9.5 -153 -28.5s-86.5 -45.833 -119.5 -80.5s-58.333 -75.167 -76 -121.5s-26.5 -96.166 -26.5 -149.499c0 -52 8.66699 -101 26 -147s42.833 -86.167 76.5 -120.5
s75 -61 124 -80s103.833 -28.5 164.5 -28.5c32 0 60.333 1.66699 85 5l20 110c-33.333 -8.66699 -64.333 -13 -93 -13c-41.333 0 -80 7 -116 21s-67.167 33.667 -93.5 59s-46.833 55 -61.5 89s-22 70.333 -22 109c0 43.333 8 82.166 24 116.499s37.5 63.333 64.5 87
s56.833 41.334 89.5 53.001s65.334 17.5 98.001 17.5c41.333 0 78 -8 110 -24z" />
    <glyph glyph-name="D" unicode="D" horiz-adv-x="667" 
d="M56 0h201.001c48 0 94 8.66699 138 26s83.167 42 117.5 74s61.166 70.167 80.499 114.5s29 92.833 29 145.5s-9.66699 101.167 -29 145.5s-46 82.5 -80 114.5s-73.167 56.667 -117.5 74s-90.5 26 -138.5 26h-201v-720zM166.001 622h103c34 0 65.833 -6.66699 95.5 -20
s55.5 -32 77.5 -56s39.167 -52.333 51.5 -85s18.5 -68 18.5 -106c0 -81.333 -25.5 -145.833 -76.5 -193.5s-119.833 -71.5 -206.5 -71.5h-63v532z" />
    <glyph glyph-name="E" unicode="E" horiz-adv-x="463" 
d="M56 0h373l42 98h-305v223h217v94h-217v207h270l-26 98h-354v-720z" />
    <glyph glyph-name="F" unicode="F" 
d="M56 -4l110 8v317h188v94h-188v207h261l-26 98h-345v-724z" />
    <glyph glyph-name="G" unicode="G" horiz-adv-x="741" 
d="M690 625c-73.333 75.333 -167 113.002 -281 113.002c-50.667 0 -98.834 -9 -144.501 -27s-86.334 -44 -122.001 -78s-63.5 -74.333 -83.5 -121s-30 -97.334 -30 -152.001s10 -105.334 30 -152.001s47.833 -87 83.5 -121s76.334 -60 122.001 -78s93.834 -27 144.501 -27
c56 0 106.667 8.66699 152 26s93.333 43 144 77v320h-262v-94h156v-165c-21.333 -17.333 -49 -32 -83 -44s-68.667 -18 -104 -18c-34.667 0 -68.334 6.5 -101.001 19.5s-62 31.833 -88 56.5s-46.5 54 -61.5 88s-22.5 71.333 -22.5 112s7.5 78 22.5 112s35.5 63.333 61.5 88
s55.333 43.5 88 56.5s66.334 19.5 101.001 19.5c39.333 0 76 -7 110 -21s66 -34.333 96 -61z" />
    <glyph glyph-name="H" unicode="H" horiz-adv-x="722" 
d="M556 -4l110 8v720l-110 -8v-301h-390v309l-110 -8v-720l110 8v317h390v-325z" />
    <glyph glyph-name="I" unicode="I" horiz-adv-x="222" 
d="M56 -4l110 8v720l-110 -8v-720z" />
    <glyph glyph-name="J" unicode="J" horiz-adv-x="333" 
d="M167 225c0 -49.333 -13.5 -85.165 -40.5 -107.498s-62.833 -33.5 -107.5 -33.5c-9.33301 0 -21.333 0.666992 -36 2v-98c8.66699 -4 21 -6 37 -6c33.333 0 65 3.83301 95 11.5s57.167 20.167 81.5 37.5s43.833 40.666 58.5 69.999s22 64.666 22 105.999v517l-110 -8v-491
z" />
    <glyph glyph-name="K" unicode="K" horiz-adv-x="537" 
d="M559 28l-263 331l257 322l-91 57l-294 -369h-2v355l-110 -8v-720l110 8v347h2l286 -369z" />
    <glyph glyph-name="L" unicode="L" horiz-adv-x="481" 
d="M56 0h393l42 102h-325v622l-110 -8v-716z" />
    <glyph glyph-name="M" unicode="M" horiz-adv-x="870" 
d="M435 196l-329 542l-82 -734l110 -8l41 423h2l258 -423l258 423h2l41 -423l110 8l-82 734z" />
    <glyph glyph-name="N" unicode="N" horiz-adv-x="704" 
d="M167 472l476 -499v751l-106 -8v-469l-476 491v-742l106 8v468z" />
    <glyph glyph-name="O" unicode="O" horiz-adv-x="834" 
d="M29 360c0 -53.333 10.5 -103.166 31.5 -149.499s50 -86.666 87 -120.999s78.833 -60.833 125.5 -79.5s94.667 -28 144 -28s97.5 9.33301 144.5 28s88.833 45.167 125.5 79.5s65.5 74.666 86.5 120.999s31.5 96.166 31.5 149.499s-10.5 103.166 -31.5 149.499
s-50 86.666 -87 120.999s-78.833 60.833 -125.5 79.5s-94.667 28 -144 28s-97.5 -9.33301 -144.5 -28s-88.833 -45.167 -125.5 -79.5s-65.5 -74.666 -86.5 -120.999s-31.5 -96.166 -31.5 -149.499zM139 360c0 38 7.33301 73.833 22 107.5s35 63.167 61 88.5
s55.833 45 89.5 59s68.834 21 105.501 21s71.834 -7 105.501 -21s63.5 -33.5 89.5 -58.5s46.333 -54.5 61 -88.5s22 -70 22 -108s-7.33301 -73.833 -22 -107.5s-35 -63.167 -61 -88.5s-55.833 -45 -89.5 -59s-68.834 -21 -105.501 -21s-71.834 7 -105.501 21
s-63.5 33.667 -89.5 59s-46.333 54.833 -61 88.5s-22 69.5 -22 107.5z" />
    <glyph glyph-name="P" unicode="P" horiz-adv-x="519" 
d="M56 -4l110 8.00098v287c16 -2 34.333 -3 55 -3c94 0 165.167 21 213.5 63s72.5 96 72.5 162c0 63.333 -22.667 113.666 -68 150.999s-104.333 56 -177 56h-206v-724zM166 630.001h89c44 0 78.667 -11.5 104 -34.5s38 -52.5 38 -88.5c0 -39.333 -13.833 -70 -41.5 -92
s-65.5 -33 -113.5 -33c-32.667 0 -58 2.33301 -76 7v241z" />
    <glyph glyph-name="Q" unicode="Q" horiz-adv-x="834" 
d="M724 -4l73 66.998l-69 73c24.667 31.333 43.667 66 57 104s20 78 20 120c0 53.333 -10.5 103.166 -31.5 149.499s-50 86.666 -87 120.999s-78.833 60.833 -125.5 79.5s-94.667 28 -144 28s-97.5 -9.33301 -144.5 -28s-88.833 -45.167 -125.5 -79.5
s-65.5 -74.666 -86.5 -120.999s-31.5 -96.166 -31.5 -149.499s10.5 -103.166 31.5 -149.499s50 -86.666 87 -120.999s78.833 -60.833 125.5 -79.5s94.667 -28 144 -28c43.333 0 85.833 7.16699 127.5 21.5s79.5 34.833 113.5 61.5zM585 140.998
c-23.333 -18 -49.501 -32 -78.501 -42s-58.833 -15 -89.5 -15c-36.667 0 -71.834 7 -105.501 21s-63.5 33.667 -89.5 59s-46.333 54.833 -61 88.5s-22 69.5 -22 107.5s7.33301 73.833 22 107.5s35 63.167 61 88.5s55.833 45 89.5 59s68.834 21 105.501 21
s71.834 -7 105.501 -21s63.5 -33.5 89.5 -58.5s46.333 -54.5 61 -88.5s22 -70 22 -108c0 -52.667 -14.333 -101 -43 -145l-54 56l-73 -67z" />
    <glyph glyph-name="R" unicode="R" horiz-adv-x="500" 
d="M166 630h56.999c37.333 0 68.833 -10.667 94.5 -32s38.5 -50 38.5 -86c0 -34.667 -12.167 -63 -36.5 -85s-56.166 -33 -95.499 -33h-58v236zM55.999 -4l110 8v322h2l248 -344l101 46l-223 295c52 8.66699 93 30.5 123 65.5s45 77.167 45 126.5
c0 60 -21.333 109.167 -64 147.5s-105 57.5 -187 57.5h-155v-724z" />
    <glyph glyph-name="S" unicode="S" horiz-adv-x="500" 
d="M467 623c-26 36 -55.501 64.167 -88.501 84.5s-71.167 30.5 -114.5 30.5c-30.667 0 -59.667 -5.16699 -87 -15.5s-51.166 -25 -71.499 -44s-36.166 -41.167 -47.499 -66.5s-17 -52.666 -17 -81.999c0 -34 5.33301 -63 16 -87s24.667 -43.667 42 -59
s35.5 -27.5 54.5 -36.5s43.833 -19.167 74.5 -30.5c23.333 -8.66699 41.833 -16 55.5 -22s26.5 -13.5 38.5 -22.5s21.5 -19.833 28.5 -32.5s10.5 -27.667 10.5 -45c0 -31.333 -10.667 -58.333 -32 -81s-47.666 -34 -78.999 -34c-26.667 0 -52.167 8.83301 -76.5 26.5
s-46.5 42.167 -66.5 73.5l-78 -77c54.667 -80.667 127 -121 217 -121c32 0 61.667 5.66699 89 17s51.166 27.166 71.499 47.499s36.166 43.833 47.499 70.5s17 55 17 85c0 33.333 -5.33301 61.666 -16 84.999s-25 42.833 -43 58.5s-36.5 28.167 -55.5 37.5
s-43.833 20 -74.5 32c-23.333 8.66699 -41.666 16.167 -54.999 22.5s-25.333 13.5 -36 21.5c-26.667 19.333 -40 44 -40 74c0 32 10.667 57.833 32 77.5s47.666 29.5 78.999 29.5c25.333 0 48.833 -7.66699 70.5 -23s43.167 -37.666 64.5 -66.999z" />
    <glyph glyph-name="T" unicode="T" horiz-adv-x="480" 
d="M185 -4l110 8v618h184v98h-467l-32 -98h205v-626z" />
    <glyph glyph-name="U" unicode="U" horiz-adv-x="630" 
d="M464 266c0 -34 -3.83496 -63 -11.502 -87s-18.334 -43.333 -32.001 -58s-29.334 -25.167 -47.001 -31.5s-37.167 -9.5 -58.5 -9.5s-40.833 3.16699 -58.5 9.5s-33.334 16.833 -47.001 31.5s-24.334 34 -32.001 58s-11.5 53 -11.5 87v458l-110 -8v-480
c0 -44.667 7.33301 -83.334 22 -116.001s34.334 -59.167 59.001 -79.5s52.334 -35.166 83.001 -44.499s62.334 -14 95.001 -14s64.334 4.66699 95.001 14s58.334 24.166 83.001 44.499s44.334 46.833 59.001 79.5s22 71.334 22 116.001v488l-110 -8v-450z" />
    <glyph glyph-name="V" unicode="V" horiz-adv-x="593" 
d="M294 -27l325 747h-114l-211 -484l-202 484h-118z" />
    <glyph glyph-name="W" unicode="W" horiz-adv-x="890" 
d="M607 -27l309 747h-114l-202 -492l-102 225l122 267h-110l-65 -151l-65 151h-110l122 -267l-102 -225l-202 492h-114l309 -747l162 361z" />
    <glyph glyph-name="X" unicode="X" horiz-adv-x="574" 
d="M493 -18l93 54l-234 333l225 312l-92 57l-198 -274l-198 274l-92 -57l225 -312l-234 -333l93 -54l206 291z" />
    <glyph glyph-name="Y" unicode="Y" horiz-adv-x="519" 
d="M230 278l-119 -268l105 -28l320 712l-101 44l-150 -344l-209 344l-102 -44z" />
    <glyph glyph-name="Z" unicode="Z" horiz-adv-x="611" 
d="M5 0h583l18 98h-408l400 622h-568l-18 -98h393z" />
    <glyph glyph-name="bracketleft" unicode="[" horiz-adv-x="296" 
d="M80 -152h206v84h-112v704h112v84h-206v-872z" />
    <glyph glyph-name="backslash" unicode="\" 
d="M311 -18h84l-299 756h-84z" />
    <glyph glyph-name="bracketright" unicode="]" horiz-adv-x="296" 
d="M122 -68h-112v-84h206v872h-206v-84h112v-704z" />
    <glyph glyph-name="asciicircum" unicode="^" horiz-adv-x="600" 
d="M459 187h84l-204 414h-78l-204 -414h84l159 330z" />
    <glyph glyph-name="underscore" unicode="_" horiz-adv-x="500" 
d="M0 -125h500v50h-500v-50z" />
    <glyph glyph-name="grave" unicode="`" horiz-adv-x="184" 
d="M74 446h74l-58 124h-124z" />
    <glyph glyph-name="a" unicode="a" horiz-adv-x="389" 
d="M246 229c-22.667 23.333 -52.668 35 -90.001 35c-35.333 0 -65.833 -12.5 -91.5 -37.5s-38.5 -58.167 -38.5 -99.5c0 -42.667 11.333 -76.5 34 -101.5s53.667 -37.5 93 -37.5c24 0 44.333 4 61 12s28 20.333 34 37h2v-41l90 8v285c0 35.333 -11.667 60.333 -35 75
s-61.666 22 -114.999 22c-22.667 0 -51.667 -2.33301 -87 -7l-27 -90c4.66699 0.666992 11 2 19 4c34.667 6 59.667 9 75 9c28.667 0 48.5 -3.5 59.5 -10.5s16.5 -18.167 16.5 -33.5v-29zM123.999 126c0 14.667 5.5 26.334 16.5 35.001s25.833 13 44.5 13
s33.5 -4.33301 44.5 -13s16.5 -20.334 16.5 -35.001c0 -36 -20.333 -54 -61 -54s-61 18 -61 54z" />
    <glyph glyph-name="b" unicode="b" horiz-adv-x="481" 
d="M43 198c0 -68 19.332 -120 57.999 -156s91.334 -54 158.001 -54c54.667 0 101 18 139 54s57 85.667 57 149s-19 113 -57 149s-84.333 54 -139 54c-21.333 0 -42.5 -4.83301 -63.5 -14.5s-39.167 -23.5 -54.5 -41.5v386l-98 -8v-518zM140.999 191
c0 32 10.167 58.833 30.5 80.5s45.5 32.5 75.5 32.5c31.333 0 57.5 -10.667 78.5 -32s31.5 -48.333 31.5 -81s-10.5 -59.667 -31.5 -81s-47.167 -32 -78.5 -32c-30 0 -55.167 10.833 -75.5 32.5s-30.5 48.5 -30.5 80.5z" />
    <glyph glyph-name="c" unicode="c" horiz-adv-x="389" 
d="M369 347c-25.333 15.333 -48.9961 26.999 -70.9961 34.999s-47 12 -75 12c-24.667 0 -48.834 -4.5 -72.501 -13.5s-44.834 -22.167 -63.501 -39.5s-33.5 -38.166 -44.5 -62.499s-16.5 -51.166 -16.5 -80.499c0 -64 19.167 -115 57.5 -153s87.166 -57 146.499 -57
c22 0 47 4.16699 75 12.5s50.333 19.833 67 34.5l-39 84c-16 -14.667 -31.833 -25.167 -47.5 -31.5s-33.834 -9.5 -54.501 -9.5c-30.667 0 -56.167 10 -76.5 30s-30.5 48.333 -30.5 85c0 33.333 10.5 60.166 31.5 80.499s49.167 30.5 84.5 30.5c30 0 57.333 -11.333 82 -34z
" />
    <glyph glyph-name="d" unicode="d" horiz-adv-x="500" 
d="M359 338c-32 37.333 -74.665 56 -127.998 56c-58.667 0 -107.5 -17.833 -146.5 -53.5s-58.5 -85.5 -58.5 -149.5s19.5 -113.833 58.5 -149.5s87.833 -53.5 146.5 -53.5c27.333 0 50.666 3.16699 69.999 9.5s38.666 18.5 57.999 36.5v-38l98 8v720l-98 -8v-378z
M359.002 191c0 -32.667 -10.833 -59.667 -32.5 -81s-49.5 -32 -83.5 -32c-35.333 0 -64 10.667 -86 32s-33 48.333 -33 81s11 59.667 33 81s50.667 32 86 32c34 0 61.833 -10.667 83.5 -32s32.5 -48.333 32.5 -81z" />
    <glyph glyph-name="e" unicode="e" 
d="M408 276c-21.333 40 -46.8291 69.6641 -76.4961 88.9971s-65.834 29 -108.501 29c-24.667 0 -48.834 -4.5 -72.501 -13.5s-44.834 -22.167 -63.501 -39.5s-33.5 -38.166 -44.5 -62.499s-16.5 -51.166 -16.5 -80.499c0 -64 19.167 -115 57.5 -153s87.166 -57 146.499 -57
c30.667 0 58.5 4.66699 83.5 14s47.167 24.333 66.5 45l-36 85c-19.333 -21.333 -37.666 -36.666 -54.999 -45.999s-36.333 -14 -57 -14c-32.667 0 -59.334 13 -80.001 39zM124.004 180.997c-2.66699 6 -4 13.333 -4 22c0 31.333 10.833 57 32.5 77s43.167 30 64.5 30
c26 0 49.333 -7 70 -21z" />
    <glyph glyph-name="f" unicode="f" horiz-adv-x="222" 
d="M43 -4l97.999 7.99902v288h86v90h-86v157c0 32.667 7.83301 56.834 23.5 72.501s39.834 25.167 72.501 28.5v98c-64.667 -5.33301 -113.167 -24.5 -145.5 -57.5s-48.5 -77.5 -48.5 -133.5v-551z" />
    <glyph glyph-name="g" unicode="g" 
d="M29 -89c19.333 -26.667 41.8311 -46.668 67.498 -60.001s53.5 -20 83.5 -20c52.667 0 96.667 15 132 45s53 69.667 53 119c0 42 -18.667 80.667 -56 116c22.667 16.667 39 35 49 55s15 42 15 66c0 15.333 -3.16699 31.5 -9.5 48.5s-14.833 30.833 -25.5 41.5h34l13 64
c-32 -2.66699 -56.667 -4 -74 -4c-13.333 0 -32.666 2 -57.999 6s-44.666 6 -57.999 6c-22 0 -43.167 -3.33301 -63.5 -10s-38.833 -16.834 -55.5 -30.501s-29.834 -31 -39.501 -52s-14.5 -45.5 -14.5 -73.5c0 -25.333 6.5 -49.166 19.5 -71.499s30.833 -39.5 53.5 -51.5
l-22 -71c16 12 32.667 21.667 50 29s34 11 50 11c24.667 0 46.5 -7.5 65.5 -22.5s28.5 -34.5 28.5 -58.5c0 -22 -7.66699 -40.5 -23 -55.5s-34.666 -22.5 -57.999 -22.5c-19.333 0 -37.5 5.83301 -54.5 17.5s-31.5 28.834 -43.5 51.501zM115.998 231.999
c0 22.667 7.33301 40.334 22 53.001s34 19 58 19c23.333 0 42.333 -6.33301 57 -19s22 -30.334 22 -53.001c0 -23.333 -7.16699 -41.5 -21.5 -54.5s-33.5 -19.5 -57.5 -19.5s-43.333 6.5 -58 19.5s-22 31.167 -22 54.5z" />
    <glyph glyph-name="h" unicode="h" 
d="M43 -4l97.998 8.00195v205c0 26 5.83301 47 17.5 63s26.834 24 45.501 24c41.333 0 62 -26.333 62 -79v-221l98 8v273c0 35.333 -11.833 63.666 -35.5 84.999s-53.167 32 -88.5 32c-20.667 0 -39.167 -4.33301 -55.5 -13s-30.166 -23.334 -41.499 -44.001h-2v387l-98 -8
v-720z" />
    <glyph glyph-name="i" unicode="i" horiz-adv-x="184" 
d="M43 -4l98 8v382l-98 -8v-382zM43 468h98v102h-98v-102z" />
    <glyph glyph-name="j" unicode="j" horiz-adv-x="184" 
d="M43 0c0 -19.333 -3 -33.665 -9 -42.998s-15.333 -16 -28 -20v-106c17.333 2 33.833 6 49.5 12s30 14.667 43 26s23.333 25.666 31 42.999s11.5 37.666 11.5 60.999v413l-98 -8v-378zM43 468.001h98v102h-98v-102z" />
    <glyph glyph-name="k" unicode="k" 
d="M43 -4l98 8v177l187 -199l88 46l-154 164l153 155l-76 59l-198 -201v519l-98 -8v-720z" />
    <glyph glyph-name="l" unicode="l" horiz-adv-x="184" 
d="M43 -4l98 8v720l-98 -8v-720z" />
    <glyph glyph-name="m" unicode="m" horiz-adv-x="610" 
d="M469 -4l97.9971 7.99707v264c0 39.333 -11.167 70.166 -33.5 92.499s-52.5 33.5 -90.5 33.5c-25.333 0 -46.166 -4.66699 -62.499 -14s-31.833 -24.666 -46.5 -45.999c-12.667 20.667 -26.667 35.834 -42 45.501s-34 14.5 -56 14.5c-20 0 -39.5 -5.16699 -58.5 -15.5
s-31.833 -23.5 -38.5 -39.5h-2v47l-94 -8v-382l98 8v208c0 28.667 5.16699 49.834 15.5 63.501s24.5 20.5 42.5 20.5c18.667 0 32.834 -5.66699 42.501 -17s14.5 -30.333 14.5 -57v-226l98 8v208c0 28.667 5.16699 49.834 15.5 63.501s24.5 20.5 42.5 20.5
c18.667 0 32.834 -5.66699 42.501 -17s14.5 -30.333 14.5 -57v-226z" />
    <glyph glyph-name="n" unicode="n" 
d="M43 -4l97.998 8.00195v205c0 26 5.83301 47 17.5 63s26.834 24 45.501 24c41.333 0 62 -26.333 62 -79v-221l98 8v273c0 35.333 -11.833 63.666 -35.5 84.999s-53.167 32 -88.5 32c-20.667 0 -39.167 -4.33301 -55.5 -13s-30.166 -23.334 -41.499 -44.001h-2v49l-98 -8
v-382z" />
    <glyph glyph-name="o" unicode="o" horiz-adv-x="462" 
d="M231 78c-30 0 -55.333 10.667 -76 32s-31 48.333 -31 81s10.333 59.667 31 81s46 32 76 32c30.667 0 56.167 -10.667 76.5 -32s30.5 -48.333 30.5 -81s-10.167 -59.667 -30.5 -81s-45.833 -32 -76.5 -32zM26 191c0 -26 5.16602 -51.168 15.499 -75.501
s25 -46.166 44 -65.499s40.833 -34.5 65.5 -45.5s51.334 -16.5 80.001 -16.5s55.5 5.5 80.5 16.5s46.833 26 65.5 45s33.167 40.833 43.5 65.5s15.5 50 15.5 76s-5.16699 51.333 -15.5 76s-24.833 46.5 -43.5 65.5s-40.5 34 -65.5 45s-51.833 16.5 -80.5 16.5
s-55.5 -5.5 -80.5 -16.5s-46.833 -26 -65.5 -45s-33.167 -40.833 -43.5 -65.5s-15.5 -50 -15.5 -76z" />
    <glyph glyph-name="p" unicode="p" horiz-adv-x="481" 
d="M43 -169l98 8v195c18.667 -18 37.5 -30.167 56.5 -36.5s39.5 -9.5 61.5 -9.5c54.667 0 101 18 139 54s57 85.667 57 149s-19 113 -57 149s-84.333 54 -139 54c-21.333 0 -42.5 -4.83301 -63.5 -14.5s-39.167 -23.5 -54.5 -41.5v48l-98 -8v-547zM141 191
c0 32 10.167 58.833 30.5 80.5s45.5 32.5 75.5 32.5c31.333 0 57.5 -10.667 78.5 -32s31.5 -48.333 31.5 -81s-10.5 -59.667 -31.5 -81s-47.167 -32 -78.5 -32c-30 0 -55.167 10.833 -75.5 32.5s-30.5 48.5 -30.5 80.5z" />
    <glyph glyph-name="q" unicode="q" horiz-adv-x="500" 
d="M359 338c-32 37.333 -74.665 56 -127.998 56c-58.667 0 -107.5 -17.833 -146.5 -53.5s-58.5 -85.5 -58.5 -149.5s19.5 -113.833 58.5 -149.5s87.833 -53.5 146.5 -53.5c27.333 0 50.666 3.16699 69.999 9.5s38.666 18.5 57.999 36.5v-203l98 8v547l-98 -8v-40z
M359.002 191c0 -32.667 -10.833 -59.667 -32.5 -81s-49.5 -32 -83.5 -32c-35.333 0 -64 10.667 -86 32s-33 48.333 -33 81s11 59.667 33 81s50.667 32 86 32c34 0 61.833 -10.667 83.5 -32s32.5 -48.333 32.5 -81z" />
    <glyph glyph-name="r" unicode="r" horiz-adv-x="241" 
d="M43 378v-382l98 8v198c0 32.667 6.66699 56.5 20 71.5s36 22.5 68 22.5h22v98c-23.333 0 -44.333 -4.16699 -63 -12.5s-33.667 -19.833 -45 -34.5h-2v39z" />
    <glyph glyph-name="s" unicode="s" horiz-adv-x="315" 
d="M284 317c-13.333 22 -30.9971 40.3291 -52.9971 54.9961s-45 22 -69 22c-37.333 0 -68.333 -12.5 -93 -37.5s-37 -55.167 -37 -90.5c0 -16.667 2.83301 -31 8.5 -43s13.167 -21.833 22.5 -29.5s19 -13.667 29 -18s23 -9.16602 39 -14.499c22 -8 38.167 -15.333 48.5 -22
s15.5 -17 15.5 -31c0 -13.333 -4.16699 -23.666 -12.5 -30.999s-18.833 -11 -31.5 -11c-13.333 0 -25.833 3.83301 -37.5 11.5s-21.834 17.167 -30.501 28.5l-57 -66c32.667 -34.667 72 -52 118 -52c40.667 0 75 12.833 103 38.5s42 57.5 42 95.5c0 20 -3 36.833 -9 50.5
s-13.833 24.334 -23.5 32.001s-19.5 13.5 -29.5 17.5s-23.333 8.66699 -40 14c-21.333 6 -36.833 12 -46.5 18s-14.5 15.667 -14.5 29c0 10.667 3.66699 18.834 11 24.501s16.666 8.5 27.999 8.5s22.166 -4.16699 32.499 -12.5s19.5 -21.833 27.5 -40.5z" />
    <glyph glyph-name="t" unicode="t" horiz-adv-x="259" 
d="M22 292h36.999v-169c0 -43.333 13.833 -75.333 41.5 -96s66.167 -31 115.5 -31h21v90h-14c-21.333 0 -37.666 5.66699 -48.999 17s-17 29.333 -17 54v135h80v90h-80v169l-98 -48v-121h-37v-90z" />
    <glyph glyph-name="u" unicode="u" 
d="M43 105c0 -35.333 11.835 -63.6689 35.502 -85.002s53.167 -32 88.5 -32c20.667 0 39.167 4.33301 55.5 13s30.166 23.334 41.499 44.001h2v-49l98 8v382l-98 -8v-205c0 -25.333 -5.83301 -46.166 -17.5 -62.499s-26.834 -24.5 -45.501 -24.5
c-41.333 0 -62 26.333 -62 79v221l-98 -8v-273z" />
    <glyph glyph-name="v" unicode="v" horiz-adv-x="370" 
d="M162 0h44l173 376l-100 18l-94 -210l-94 210l-100 -18z" />
    <glyph glyph-name="w" unicode="w" horiz-adv-x="556" 
d="M135 0h44l99 208l99 -208h44l137 382l-98 12l-72 -204l-88 196h-44l-88 -200l-72 208l-98 -12z" />
    <glyph glyph-name="x" unicode="x" horiz-adv-x="370" 
d="M123 190l-125 -164l93 -38l94 131l94 -131l93 38l-123 164l116 159l-88 45l-92 -128l-92 128l-88 -45z" />
    <glyph glyph-name="y" unicode="y" 
d="M146 41l-98 -202l104 -8l264 545l-99 18l-113 -239l-114 239l-99 -18z" />
    <glyph glyph-name="z" unicode="z" horiz-adv-x="315" 
d="M-2 0h319v90h-163l163 292h-268l-27 -90h139z" />
    <glyph glyph-name="braceleft" unicode="{" horiz-adv-x="296" 
d="M21 252c22 -1.33301 41.333 -12.501 58 -33.501s25 -47.833 25 -80.5v-164c0 -39.333 10.833 -70.166 32.5 -92.499s48.167 -33.5 79.5 -33.5h78v84h-43c-20.667 0 -34.667 6.5 -42 19.5s-11 30.833 -11 53.5v149c0 21.333 -3.16699 39.833 -9.5 55.5
s-14.166 28.5 -23.499 38.5s-18.833 17.833 -28.5 23.5s-18.167 9.5 -25.5 11.5v2c7.33301 2 15.666 5.66699 24.999 11s18.833 13.166 28.5 23.499s17.667 23.5 24 39.5s9.5 34.333 9.5 55v149c0 22.667 3.66699 40.5 11 53.5s21.333 19.5 42 19.5h43v84h-78
c-31.333 0 -57.833 -11.167 -79.5 -33.5s-32.5 -53.166 -32.5 -92.499v-164c0 -32.667 -8.33301 -59.5 -25 -80.5s-36 -32.167 -58 -33.5v-64z" />
    <glyph glyph-name="bar" unicode="|" horiz-adv-x="222" 
d="M69 -250h84v1000h-84v-1000z" />
    <glyph glyph-name="braceright" unicode="}" horiz-adv-x="296" 
d="M2 636l43 0.000976562c20.667 0 34.667 -6.5 42 -19.5s11 -30.833 11 -53.5v-149c0 -20.667 3.16699 -39 9.5 -55s14.166 -29 23.499 -39s18.833 -17.833 28.5 -23.5s18.167 -9.5 25.5 -11.5v-2c-7.33301 -2 -15.666 -5.66699 -24.999 -11s-18.833 -13.166 -28.5 -23.499
s-17.667 -23.333 -24 -39s-9.5 -34.167 -9.5 -55.5v-149c0 -22.667 -3.66699 -40.5 -11 -53.5s-21.333 -19.5 -42 -19.5h-43v-84h78c31.333 0 57.833 11.167 79.5 33.5s32.5 53.166 32.5 92.499v164c0 32.667 8.33301 59.5 25 80.5s36 32.167 58 33.5v64
c-22 1.33301 -41.333 12.5 -58 33.5s-25 47.833 -25 80.5v164c0 39.333 -10.833 70.166 -32.5 92.499s-48.167 33.5 -79.5 33.5h-78v-84z" />
    <glyph glyph-name="asciitilde" unicode="~" horiz-adv-x="600" 
d="M105 170c29.333 50.667 58.667 76.001 88 76.001c11.333 0 25 -3 41 -9s34.667 -14.667 56 -26c20 -10.667 39.833 -19.167 59.5 -25.5s38.5 -9.5 56.5 -9.5c25.333 0 48.666 6.5 69.999 19.5s41.666 34.833 60.999 65.5l-42 75c-29.333 -50.667 -58.666 -76 -87.999 -76
c-12 0 -26.667 3 -44 9s-35 14.333 -53 25c-19.333 11.333 -38.833 20.166 -58.5 26.499s-38.834 9.5 -57.501 9.5c-25.333 0 -48.666 -6.5 -69.999 -19.5s-41.666 -34.833 -60.999 -65.5z" />
    <glyph glyph-name="exclamdown" unicode="&#xa1;" horiz-adv-x="260" 
d="M75 -169l110 8v570h-110v-578zM75 451h110v110h-110v-110z" />
    <glyph glyph-name="cent" unicode="&#xa2;" horiz-adv-x="520" 
d="M252 80c-22 7.33301 -39.333 20.333 -52 39s-19 43 -19 73c0 56 23.667 93.333 71 112v-224zM252 -55l64.0039 0.00195312v41c22 3.33301 43.667 9 65 17s38.666 18 51.999 30l-39 80c-24.667 -22.667 -50.667 -35 -78 -37v234
c25.333 -4.66699 47.666 -16.667 66.999 -36l47 73c-19.333 13.333 -38 24 -56 32s-37.333 13 -58 15v41h-64v-41c-46.667 -8 -85.834 -29.5 -117.501 -64.5s-47.5 -79.167 -47.5 -132.5c0 -56.667 15.167 -103.834 45.5 -141.501s70.166 -60.834 119.499 -69.501v-41z" />
    <glyph glyph-name="sterling" unicode="&#xa3;" horiz-adv-x="520" 
d="M57 0l405.001 -0.000976562l24 110h-303l33 174h192v98h-174l26 138c7.33301 40.667 21.166 70.834 41.499 90.501s43.833 29.5 70.5 29.5c32.667 0 65.334 -9.66699 98.001 -29l-9 110c-34.667 11.333 -69.334 17 -104.001 17c-47.333 0 -89 -15.5 -125 -46.5
s-59.667 -75.833 -71 -134.5l-33 -175h-75v-98h57z" />
    <glyph glyph-name="currency" unicode="&#xa4;" horiz-adv-x="520" 
d="M56 47l55.001 55.001c20.667 -16 43.834 -28.333 69.501 -37s52.167 -13 79.5 -13c56 0 105.667 17 149 51l55 -56l48 48l-55 55c34 44.667 51 94.667 51 150c0 28 -4.33301 54.833 -13 80.5s-21.334 48.834 -38.001 69.501l55 55l-48 48l-55 -55
c-44 33.333 -93.667 50 -149 50c-27.333 0 -53.833 -4.33301 -79.5 -13s-48.834 -21 -69.501 -37l-55 55l-48 -48l55 -55c-16 -20.667 -28.5 -43.834 -37.5 -69.501s-13.5 -52.5 -13.5 -80.5c0 -27.333 4.5 -53.833 13.5 -79.5s21.5 -48.834 37.5 -69.501l-55 -56z
M96.001 300.001c0 51.333 15.167 92.5 45.5 123.5s69.833 46.5 118.5 46.5s88.167 -15.5 118.5 -46.5s45.5 -72.167 45.5 -123.5s-15.167 -92.5 -45.5 -123.5s-69.833 -46.5 -118.5 -46.5s-88.167 15.5 -118.5 46.5s-45.5 72.167 -45.5 123.5z" />
    <glyph glyph-name="yen" unicode="&#xa5;" horiz-adv-x="520" 
d="M205 -4l110 8v146h173v68h-173v66h173v68h-143l186 342l-91 44l-180 -344l-179 344l-92 -44l178 -342h-135v-68h173v-66h-173v-68h173v-154z" />
    <glyph glyph-name="brokenbar" unicode="&#xa6;" horiz-adv-x="222" 
d="M69 -175h84v350h-84v-350zM69 325h84v350h-84v-350z" />
    <glyph glyph-name="section" unicode="&#xa7;" horiz-adv-x="481" 
d="M67 -58c26 -18 54.0039 -32.4971 84.0039 -43.4971s56.667 -16.5 80 -16.5c46.667 0 86 12.5 118 37.5s48 58.833 48 101.5c0 28.667 -10 54 -30 76c26 26.667 44.5 48.834 55.5 66.501s16.5 38.834 16.5 63.501c0 19.333 -4.66699 37.5 -14 54.5s-21.5 32.667 -36.5 47
s-31 27.166 -48 38.499l-60.5 39c-31.333 19.333 -54.5 35.166 -69.5 47.499s-22.5 24.5 -22.5 36.5c0 14 4.33301 24.333 13 31s19.667 10 33 10c19.333 0 38.166 -3.5 56.499 -10.5s38.166 -18.5 59.499 -34.5l51 73c-53.333 37.333 -107.666 56 -162.999 56
c-44 0 -81.667 -12.667 -113 -38c-14.667 -12 -26.167 -25.833 -34.5 -41.5s-12.5 -32.5 -12.5 -50.5c0 -18.667 3.16699 -34.334 9.5 -47.001s17.5 -25 33.5 -37c-52.667 -34.667 -79 -75 -79 -121c0 -16 1.33301 -29.167 4 -39.5s8.16699 -21 16.5 -32
s21.166 -23.333 38.499 -37s41 -30.5 71 -50.5c46.667 -30.667 78.167 -53.834 94.5 -69.501s24.5 -29.167 24.5 -40.5c0 -14.667 -5 -25.834 -15 -33.501s-23.333 -11.5 -40 -11.5s-35.334 4.83301 -56.001 14.5s-42.334 23.167 -65.001 40.5zM224.004 323.003
c26 -17.333 46.5 -31.833 61.5 -43.5s26.5 -21.5 34.5 -29.5s13.5 -15 16.5 -21s4.5 -12.333 4.5 -19c0 -7.33301 -3.16699 -16.5 -9.5 -27.5s-15.833 -21.5 -28.5 -31.5l-87 61c-27.333 19.333 -45.5 34.5 -54.5 45.5s-13.5 22.833 -13.5 35.5c0 22 11.667 41.333 35 58z
" />
    <glyph glyph-name="dieresis" unicode="&#xa8;" horiz-adv-x="184" 
d="M-44 468h102v102h-102v-102zM126 468h102v102h-102v-102z" />
    <glyph glyph-name="copyright" unicode="&#xa9;" horiz-adv-x="800" 
d="M512 292c-3.33301 -28 -14.167 -49.3301 -32.5 -63.9971s-41.5 -22 -69.5 -22c-40 0 -71.667 14.333 -95 43s-35 65.667 -35 111c0 46.667 10.833 84 32.5 112s52.834 42 93.501 42c27.333 0 50.666 -7.33301 69.999 -22s31.333 -34.667 36 -60h84
c-8 49.333 -29 87.666 -63 114.999s-74.667 41 -122 41c-63.333 0 -114 -21.5 -152 -64.5s-57 -97.5 -57 -163.5c0 -32 5.16699 -61.833 15.5 -89.5s24.833 -51.834 43.5 -72.501s41 -36.834 67 -48.501s54.667 -17.5 86 -17.5c46 0 85.833 14.333 119.5 43
s54.5 67.667 62.5 117h-84zM21.999 360.003c0 -51.333 9.66699 -100 29 -146s46.5 -86.5 81.5 -121.5s75.5 -62.167 121.5 -81.5s94.667 -29 146 -29s100 9.66699 146 29s86.5 46.5 121.5 81.5s62.167 75.5 81.5 121.5s29 94.667 29 146s-9.66699 100 -29 146
s-46.5 86.5 -81.5 121.5s-75.5 62.167 -121.5 81.5s-94.667 29 -146 29s-100 -9.66699 -146 -29s-86.5 -46.5 -121.5 -81.5s-62.167 -75.5 -81.5 -121.5s-29 -94.667 -29 -146zM99.999 360.003c0 42.667 7.5 82.667 22.5 120s36.167 69.833 63.5 97.5s59.333 49 96 64
s76 22.5 118 22.5s81.333 -7.5 118 -22.5s68.667 -36.333 96 -64s48.5 -60.167 63.5 -97.5s22.5 -77.333 22.5 -120s-7.5 -82.667 -22.5 -120s-36.167 -69.666 -63.5 -96.999s-59.333 -48.666 -96 -63.999s-76 -23 -118 -23s-81.333 7.66699 -118 23
s-68.667 36.666 -96 63.999s-48.5 59.666 -63.5 96.999s-22.5 77.333 -22.5 120z" />
    <glyph glyph-name="ordfeminine" unicode="&#xaa;" horiz-adv-x="253" 
d="M165 516c-13.333 11.333 -32.001 16.999 -56.001 16.999c-27.333 0 -50 -7.16699 -68 -21.5s-27 -33.166 -27 -56.499c0 -26 7.83301 -46.333 23.5 -61s38.834 -22 69.501 -22c14 0 26.333 2.5 37 7.5s18 12.167 22 21.5h2v-23l71 8v171
c0 21.333 -8.16699 36.333 -24.5 45s-43.833 13 -82.5 13c-13.333 0 -33 -1 -59 -3c-2 -0.666992 -4.66699 -1 -8 -1l-18 -59c7.33301 0.666992 15.333 1.66699 24 3c20.667 2.66699 36.667 4 48 4c16.667 0 28.5 -2 35.5 -6s10.5 -10 10.5 -18v-19zM87.999 454.999
c0 18.667 13.333 28 40 28c10.667 0 19.5 -2.5 26.5 -7.5s10.5 -11.833 10.5 -20.5c0 -8 -3.5 -14.5 -10.5 -19.5s-15.833 -7.5 -26.5 -7.5c-26.667 0 -40 9 -40 27z" />
    <glyph glyph-name="guillemotleft" unicode="&#xab;" 
d="M306 64l70 40l-90 105l90 105l-70 40l-122 -145zM153 64l70 40l-90 105l90 105l-70 40l-122 -145z" />
    <glyph glyph-name="logicalnot" unicode="&#xac;" horiz-adv-x="600" 
d="M469 107h84v292h-506v-84h422v-208z" />
    <glyph glyph-name="minus" unicode="&#xad;" horiz-adv-x="600" 
d="M47 211h506v84h-506v-84z" />
    <glyph glyph-name="minus" unicode="&#x2212;" horiz-adv-x="600" 
d="M47 211h506v84h-506v-84z" />
    <glyph glyph-name="registered" unicode="&#xae;" horiz-adv-x="800" 
d="M22 360c0 -51.333 9.83203 -100 29.499 -146s46.834 -86.5 81.501 -121.5s75 -62.167 121 -81.5s94.667 -29 146 -29s100 9.66699 146 29s86.5 46.5 121.5 81.5s62.167 75.5 81.5 121.5s29 94.667 29 146s-9.66699 100 -29 146s-46.5 86.5 -81.5 121.5
s-75.5 62.167 -121.5 81.5s-94.667 29 -146 29s-99.833 -9.66699 -145.5 -29s-86 -46.5 -121 -81.5s-62.333 -75.5 -82 -121.5s-29.5 -94.667 -29.5 -146zM99.999 360c0 42.667 7.5 82.667 22.5 120s36.167 69.833 63.5 97.5s59.333 49 96 64s76 22.5 118 22.5
s81.333 -7.5 118 -22.5s68.667 -36.333 96 -64s48.5 -60.167 63.5 -97.5s22.5 -77.333 22.5 -120s-7.5 -82.667 -22.5 -120s-36.167 -69.666 -63.5 -96.999s-59.333 -48.666 -96 -63.999s-76 -23 -118 -23s-81.333 7.66699 -118 23s-68.667 36.666 -96 63.999
s-48.5 59.666 -63.5 96.999s-22.5 77.333 -22.5 120zM501.999 144l84 -0.00195312l-116 194c32 2 58.167 12.333 78.5 31s30.5 46.334 30.5 83.001c0 42.667 -13.5 73.834 -40.5 93.501s-67.5 29.5 -121.5 29.5h-168v-431h74v187h66zM322.999 390.998v123.999h82
c28 0 51 -4 69 -12s27 -23.333 27 -46c0 -27.333 -8.5 -45.166 -25.5 -53.499s-42.5 -12.5 -76.5 -12.5h-76z" />
    <glyph glyph-name="macron" unicode="&#xaf;" horiz-adv-x="184" 
d="M-29 468h242v78h-242v-78z" />
    <glyph glyph-name="degree" unicode="&#xb0;" horiz-adv-x="400" 
d="M51 466c0 -20 3.83301 -39.167 11.5 -57.5s18.334 -34.333 32.001 -48s29.667 -24.334 48 -32.001s37.5 -11.5 57.5 -11.5s39.167 3.83301 57.5 11.5s34.333 18.334 48 32.001s24.334 29.667 32.001 48s11.5 37.5 11.5 57.5s-3.83301 39.167 -11.5 57.5
s-18.334 34.333 -32.001 48s-29.667 24.334 -48 32.001s-37.5 11.5 -57.5 11.5s-39.167 -3.83301 -57.5 -11.5s-34.333 -18.334 -48 -32.001s-24.334 -29.667 -32.001 -48s-11.5 -37.5 -11.5 -57.5zM111 466c0 24.667 8.66699 45.667 26 63s38.333 26 63 26
s45.667 -8.66699 63 -26s26 -38.333 26 -63s-8.66699 -45.667 -26 -63s-38.333 -26 -63 -26s-45.667 8.66699 -63 26s-26 38.333 -26 63z" />
    <glyph glyph-name="plusminus" unicode="&#xb1;" horiz-adv-x="600" 
d="M258 354h-211v-84h211v-152h84v152h211v84h-211v152h-84v-152zM47 0h506v84h-506v-84z" />
    <glyph glyph-name="twosuperior" unicode="&#xb2;" horiz-adv-x="337" 
d="M166 452c-19.333 4.66699 -33.999 11.668 -43.999 21.001s-15 19.666 -15 30.999c0 12.667 5.66699 23 17 31s25.333 12 42 12s30.667 -4.16699 42 -12.5s17 -19.166 17 -32.499c0 -22 -9.33301 -43.667 -28 -65l-159 -191h250l20 68h-134l59 59
c25.333 25.333 43.333 48.833 54 70.5s16 42.167 16 61.5c0 32 -12.333 58.333 -37 79s-56.334 31 -95.001 31c-42.667 0 -77 -10.667 -103 -32s-39 -47.333 -39 -78c0 -24 7.83301 -43.833 23.5 -59.5s37.5 -27.834 65.5 -36.501z" />
    <glyph glyph-name="threesuperior" unicode="&#xb3;" horiz-adv-x="337" 
d="M80 512c6.66699 11.333 15.6709 20.002 27.0039 26.002s23.333 9 36 9c15.333 0 28.666 -4 39.999 -12s17 -18.667 17 -32c0 -12.667 -5.66699 -22.834 -17 -30.501s-28 -11.5 -50 -11.5h-28v-60h31c20 0 35.667 -4.5 47 -13.5s17 -20.167 17 -33.5
c0 -12.667 -5.5 -23.834 -16.5 -33.501s-24.833 -14.5 -41.5 -14.5c-24.667 0 -48.334 12.333 -71.001 37l-42 -50c14 -17.333 31.333 -30.833 52 -40.5s44 -14.5 70 -14.5c39.333 0 71.333 10.333 96 31s37 46.667 37 78c0 19.333 -6 36 -18 50s-30.333 24.667 -55 32v2
c23.333 7.33301 40.333 17.833 51 31.5s16 30.167 16 49.5c0 30.667 -12 55.5 -36 74.5s-54 28.5 -90 28.5c-24.667 0 -47.334 -5 -68.001 -15s-38.334 -25.333 -53.001 -46z" />
    <glyph glyph-name="acute" unicode="&#xb4;" horiz-adv-x="184" 
d="M36 446h74l108 124h-124z" />
    <glyph glyph-name="mu" unicode="&#xb5;" 
d="M43 -165l98.001 7.99805v153c8.66699 -5.33301 17.334 -8 26.001 -8c20.667 0 39.167 4.33301 55.5 13s30.166 23.334 41.499 44.001h2v-49l98 8v382l-98 -8v-205c0 -25.333 -5.83301 -46.166 -17.5 -62.499s-26.834 -24.5 -45.501 -24.5c-41.333 0 -62 26.333 -62 79
v221l-98 -8v-543z" />
    <glyph glyph-name="paragraph" unicode="&#xb6;" horiz-adv-x="600" 
d="M377 -104l68 7.99902v647h26l22 50h-235c-58 0 -103.333 -12.167 -136 -36.5s-49 -62.166 -49 -113.499c0 -42 15.667 -76.667 47 -104s72.333 -41 123 -41v-410l68 8v647h66v-655z" />
    <glyph glyph-name="periodcentered" unicode="&#xb7;" horiz-adv-x="260" 
d="M59 297c0 -19.333 7 -36 21 -50s30.667 -21 50 -21s36 7 50 21s21 30.667 21 50s-7 36 -21 50s-30.667 21 -50 21s-36 -7 -50 -21s-21 -30.667 -21 -50z" />
    <glyph glyph-name="periodcentered" unicode="&#x2219;" horiz-adv-x="260" 
d="M59 297c0 -19.333 7 -36 21 -50s30.667 -21 50 -21s36 7 50 21s21 30.667 21 50s-7 36 -21 50s-30.667 21 -50 21s-36 -7 -50 -21s-21 -30.667 -21 -50z" />
    <glyph glyph-name="cedilla" unicode="&#xb8;" horiz-adv-x="184" 
d="M104 -180c14 18.667 24.165 39 30.498 61s9.5 42.333 9.5 61v20c-21.333 -4 -37.666 -6 -48.999 -6s-27.666 2 -48.999 6c5.33301 -16 8 -32.333 8 -49c0 -24 -11.333 -55 -34 -93h84z" />
    <glyph glyph-name="onesuperior" unicode="&#xb9;" horiz-adv-x="337" 
d="M147 242l78 8v369l-86 -49c-41.333 -22.667 -72 -40 -92 -52l29 -57l71 38v-257z" />
    <glyph glyph-name="ordmasculine" unicode="&#xba;" horiz-adv-x="337" 
d="M99 494c0 16.667 6.66699 31 20 43s29.666 18 48.999 18c20 0 36.667 -6 50 -18s20 -26.333 20 -43c0 -17.333 -6.66699 -32 -20 -44s-30 -18 -50 -18c-19.333 0 -35.666 6 -48.999 18s-20 26.667 -20 44zM25 494c0 -32.667 13.5 -61.167 40.5 -85.5
s61.167 -36.5 102.5 -36.5c42 0 76.5 12 103.5 36s40.5 52.667 40.5 86c0 32.667 -13.5 61 -40.5 85s-61.5 36 -103.5 36c-41.333 0 -75.5 -12 -102.5 -36s-40.5 -52.333 -40.5 -85z" />
    <glyph glyph-name="guillemotright" unicode="&#xbb;" 
d="M31 104l70 -40l122 145l-122 145l-70 -40l90 -105zM184 104l70 -40l122 145l-122 145l-70 -40l90 -105z" />
    <glyph glyph-name="onequarter" unicode="&#xbc;" horiz-adv-x="778" 
d="M712 146h-48v219h-68l-199 -287h193v-82l74 8v74h48v68zM517 146l71 105h2v-105h-73zM149 -25h68l373 651h-68zM147 242l78 8v369l-86 -49c-41.333 -22.667 -72 -40 -92 -52l29 -57l71 38v-257z" />
    <glyph glyph-name="onehalf" unicode="&#xbd;" horiz-adv-x="778" 
d="M131 -25h68l373 651h-68zM147 242l78 8v369l-86 -49c-41.333 -22.667 -72 -40 -92 -52l29 -57l71 38v-257zM589 206c-19.333 4.66699 -33.999 11.668 -43.999 21.001s-15 19.666 -15 30.999c0 12.667 5.66699 23 17 31s25.333 12 42 12s30.667 -4.16699 42 -12.5
s17 -19.166 17 -32.499c0 -22 -9.33301 -43.667 -28 -65l-159 -191h250l20 68h-134l59 59c25.333 25.333 43.333 48.833 54 70.5s16 42.167 16 61.5c0 32 -12.333 58.333 -37 79s-56.334 31 -95.001 31c-42.667 0 -77 -10.667 -103 -32s-39 -47.333 -39 -78
c0 -24 7.83301 -43.833 23.5 -59.5s37.5 -27.834 65.5 -36.501z" />
    <glyph glyph-name="threequarters" unicode="&#xbe;" horiz-adv-x="778" 
d="M712 146h-48v219h-68l-199 -287h193v-82l74 8v74h48v68zM517 146l71 105h2v-105h-73zM149 -25h68l373 651h-68zM80 512c6.66699 11.333 15.6709 20.002 27.0039 26.002s23.333 9 36 9c15.333 0 28.666 -4 39.999 -12s17 -18.667 17 -32
c0 -12.667 -5.66699 -22.834 -17 -30.501s-28 -11.5 -50 -11.5h-28v-60h31c20 0 35.667 -4.5 47 -13.5s17 -20.167 17 -33.5c0 -12.667 -5.5 -23.834 -16.5 -33.501s-24.833 -14.5 -41.5 -14.5c-24.667 0 -48.334 12.333 -71.001 37l-42 -50
c14 -17.333 31.333 -30.833 52 -40.5s44 -14.5 70 -14.5c39.333 0 71.333 10.333 96 31s37 46.667 37 78c0 19.333 -6 36 -18 50s-30.333 24.667 -55 32v2c23.333 7.33301 40.333 17.833 51 31.5s16 30.167 16 49.5c0 30.667 -12 55.5 -36 74.5s-54 28.5 -90 28.5
c-24.667 0 -47.334 -5 -68.001 -15s-38.334 -25.333 -53.001 -46z" />
    <glyph glyph-name="questiondown" unicode="&#xbf;" horiz-adv-x="520" 
d="M222 330c0 -18 -3.16797 -33.8301 -9.50098 -47.4971s-18.5 -30.834 -36.5 -51.501c-28 -32 -50.167 -64.333 -66.5 -97s-24.5 -63.334 -24.5 -92.001c0 -65.333 18.333 -116.833 55 -154.5s83.334 -56.5 140.001 -56.5c54 0 98 16.333 132 49s56.333 80.667 67 144
l-90 34c-6 -44.667 -17.5 -77.334 -34.5 -98.001s-40.167 -31 -69.5 -31c-26 0 -48.167 9.83301 -66.5 29.5s-27.5 45.834 -27.5 78.501c0 24.667 6.5 48.167 19.5 70.5s38.167 54.166 75.5 95.499c11.333 12.667 19.833 22.667 25.5 30s10 14.833 13 22.5s5 16.167 6 25.5
s1.5 22.333 1.5 39v89h-110v-79zM221.999 451.003h110v110h-110v-110z" />
    <glyph glyph-name="Agrave" unicode="&#xc0;" horiz-adv-x="741" 
d="M353 763h74l-58 124h-124zM282 359l98 177l86 -177h-184zM80 -18l154 287h272l146 -287l109 22l-381 734l-400 -723z" />
    <glyph glyph-name="Aacute" unicode="&#xc1;" horiz-adv-x="741" 
d="M315 763h74l108 124h-124zM282 359l98 177l86 -177h-184zM80 -18l154 287h272l146 -287l109 22l-381 734l-400 -723z" />
    <glyph glyph-name="Acircumflex" unicode="&#xc2;" horiz-adv-x="741" 
d="M234 763h98l39 59l39 -59h98l-82 124h-110zM282 359l98 177l86 -177h-184zM80 -18l154 287h272l146 -287l109 22l-381 734l-400 -723z" />
    <glyph glyph-name="Atilde" unicode="&#xc3;" horiz-adv-x="741" 
d="M268 773c14 20 30 29.999 48 29.999c9.33301 0 22.333 -4.33301 39 -13c11.333 -5.33301 21.5 -9.5 30.5 -12.5s19.5 -4.5 31.5 -4.5c20.667 0 39 7.83301 55 23.5s31.667 38.834 47 69.501l-47 21c-9.33301 -20 -23.333 -30 -42 -30c-10 0 -25.333 4.33301 -46 13
c-26 11.333 -47 17 -63 17c-21.333 0 -40.5 -8.16699 -57.5 -24.5s-30.5 -40.833 -40.5 -73.5zM282 358.999l98 177l86 -177h-184zM80 -18.001l154 287h272l146 -287l109 22l-381 734l-400 -723z" />
    <glyph glyph-name="Adieresis" unicode="&#xc4;" horiz-adv-x="741" 
d="M235 785h102v102h-102v-102zM405 785h102v102h-102v-102zM282 359l98 177l86 -177h-184zM80 -18l154 287h272l146 -287l109 22l-381 734l-400 -723z" />
    <glyph glyph-name="Aring" unicode="&#xc5;" horiz-adv-x="741" 
d="M278 839c0 -25.333 9.16699 -47.166 27.5 -65.499s40.166 -27.5 65.499 -27.5s47.166 9.16699 65.499 27.5s27.5 40.166 27.5 65.499s-9.16699 47.166 -27.5 65.499s-40.166 27.5 -65.499 27.5s-47.166 -9.16699 -65.499 -27.5s-27.5 -40.166 -27.5 -65.499zM328 839
c0 12 4.16699 22.167 12.5 30.5s18.5 12.5 30.5 12.5s22.167 -4.16699 30.5 -12.5s12.5 -18.5 12.5 -30.5s-4.16699 -22.167 -12.5 -30.5s-18.5 -12.5 -30.5 -12.5s-22.167 4.16699 -30.5 12.5s-12.5 18.5 -12.5 30.5zM282 359l98 177l86 -177h-184zM80 -18l154 287h272
l146 -287l109 22l-381 734l-400 -723z" />
    <glyph glyph-name="AE" unicode="&#xc6;" horiz-adv-x="926" 
d="M-20 28l97 -46l190 293h234v-275h373l42 98h-305v223h217v94h-217v207h270l-26 98h-423zM501 369h-177l175 267h2v-267z" />
    <glyph glyph-name="Ccedilla" unicode="&#xc7;" horiz-adv-x="537" 
d="M404 -180c14 18.667 24.165 39 30.498 61s9.5 42.333 9.5 61v20c-21.333 -4 -37.666 -6 -48.999 -6s-27.666 2 -48.999 6c5.33301 -16 8 -32.333 8 -49c0 -24 -11.333 -55 -34 -93h84zM504.998 724c-12 4.66699 -27.001 8.16602 -45.001 10.499s-36.667 3.5 -56 3.5
c-55.333 0 -106.333 -9.5 -153 -28.5s-86.5 -45.833 -119.5 -80.5s-58.333 -75.167 -76 -121.5s-26.5 -96.166 -26.5 -149.499c0 -52 8.66699 -101 26 -147s42.833 -86.167 76.5 -120.5s75 -61 124 -80s103.833 -28.5 164.5 -28.5c32 0 60.333 1.66699 85 5l20 110
c-33.333 -8.66699 -64.333 -13 -93 -13c-41.333 0 -80 7 -116 21s-67.167 33.667 -93.5 59s-46.833 55 -61.5 89s-22 70.333 -22 109c0 43.333 8 82.166 24 116.499s37.5 63.333 64.5 87s56.833 41.334 89.5 53.001s65.334 17.5 98.001 17.5c41.333 0 78 -8 110 -24z" />
    <glyph glyph-name="Egrave" unicode="&#xc8;" horiz-adv-x="463" 
d="M214 763h74l-58 124h-124zM56 0h373l42 98h-305v223h217v94h-217v207h270l-26 98h-354v-720z" />
    <glyph glyph-name="Eacute" unicode="&#xc9;" horiz-adv-x="463" 
d="M176 763h74l108 124h-124zM56 0h373l42 98h-305v223h217v94h-217v207h270l-26 98h-354v-720z" />
    <glyph glyph-name="Ecircumflex" unicode="&#xca;" horiz-adv-x="463" 
d="M95 763h98l39 59l39 -59h98l-82 124h-110zM56 0h373l42 98h-305v223h217v94h-217v207h270l-26 98h-354v-720z" />
    <glyph glyph-name="Edieresis" unicode="&#xcb;" horiz-adv-x="463" 
d="M96 785h102v102h-102v-102zM266 785h102v102h-102v-102zM56 0h373l42 98h-305v223h217v94h-217v207h270l-26 98h-354v-720z" />
    <glyph glyph-name="Igrave" unicode="&#xcc;" horiz-adv-x="222" 
d="M93 763h74l-58 124h-124zM56 -4l110 8v720l-110 -8v-720z" />
    <glyph glyph-name="Iacute" unicode="&#xcd;" horiz-adv-x="222" 
d="M55 763h74l108 124h-124zM56 -4l110 8v720l-110 -8v-720z" />
    <glyph glyph-name="Icircumflex" unicode="&#xce;" horiz-adv-x="222" 
d="M-26 763h98l39 59l39 -59h98l-82 124h-110zM56 -4l110 8v720l-110 -8v-720z" />
    <glyph glyph-name="Idieresis" unicode="&#xcf;" horiz-adv-x="222" 
d="M-25 785h102v102h-102v-102zM145 785h102v102h-102v-102zM56 -4l110 8v720l-110 -8v-720z" />
    <glyph glyph-name="Eth" unicode="&#xd0;" horiz-adv-x="667" 
d="M56 0h201.001c48 0 94 8.66699 138 26s83.167 42 117.5 74s61.166 70.167 80.499 114.5s29 92.833 29 145.5s-9.66699 101.167 -29 145.5s-46 82.5 -80 114.5s-73.167 56.667 -117.5 74s-90.5 26 -138.5 26h-201v-326h-66v-68h66v-326zM166.001 394v228h103
c34 0 65.833 -6.66699 95.5 -20s55.5 -32 77.5 -56s39.167 -52.333 51.5 -85s18.5 -68 18.5 -106c0 -81.333 -25.5 -145.833 -76.5 -193.5s-119.833 -71.5 -206.5 -71.5h-63v236h150v68h-150z" />
    <glyph glyph-name="Ntilde" unicode="&#xd1;" horiz-adv-x="704" 
d="M249 773c14 20 30 29.999 48 29.999c9.33301 0 22.333 -4.33301 39 -13c11.333 -5.33301 21.5 -9.5 30.5 -12.5s19.5 -4.5 31.5 -4.5c20.667 0 39 7.83301 55 23.5s31.667 38.834 47 69.501l-47 21c-9.33301 -20 -23.333 -30 -42 -30c-10 0 -25.333 4.33301 -46 13
c-26 11.333 -47 17 -63 17c-21.333 0 -40.5 -8.16699 -57.5 -24.5s-30.5 -40.833 -40.5 -73.5zM167 471.999l476 -499v751l-106 -8v-469l-476 491v-742l106 8v468z" />
    <glyph glyph-name="Ograve" unicode="&#xd2;" horiz-adv-x="834" 
d="M399 763h74l-58 124h-124zM29 360c0 -53.333 10.5 -103.166 31.5 -149.499s50 -86.666 87 -120.999s78.833 -60.833 125.5 -79.5s94.667 -28 144 -28s97.5 9.33301 144.5 28s88.833 45.167 125.5 79.5s65.5 74.666 86.5 120.999s31.5 96.166 31.5 149.499
s-10.5 103.166 -31.5 149.499s-50 86.666 -87 120.999s-78.833 60.833 -125.5 79.5s-94.667 28 -144 28s-97.5 -9.33301 -144.5 -28s-88.833 -45.167 -125.5 -79.5s-65.5 -74.666 -86.5 -120.999s-31.5 -96.166 -31.5 -149.499zM139 360c0 38 7.33301 73.833 22 107.5
s35 63.167 61 88.5s55.833 45 89.5 59s68.834 21 105.501 21s71.834 -7 105.501 -21s63.5 -33.5 89.5 -58.5s46.333 -54.5 61 -88.5s22 -70 22 -108s-7.33301 -73.833 -22 -107.5s-35 -63.167 -61 -88.5s-55.833 -45 -89.5 -59s-68.834 -21 -105.501 -21
s-71.834 7 -105.501 21s-63.5 33.667 -89.5 59s-46.333 54.833 -61 88.5s-22 69.5 -22 107.5z" />
    <glyph glyph-name="Oacute" unicode="&#xd3;" horiz-adv-x="834" 
d="M361 763h74l108 124h-124zM29 360c0 -53.333 10.5 -103.166 31.5 -149.499s50 -86.666 87 -120.999s78.833 -60.833 125.5 -79.5s94.667 -28 144 -28s97.5 9.33301 144.5 28s88.833 45.167 125.5 79.5s65.5 74.666 86.5 120.999s31.5 96.166 31.5 149.499
s-10.5 103.166 -31.5 149.499s-50 86.666 -87 120.999s-78.833 60.833 -125.5 79.5s-94.667 28 -144 28s-97.5 -9.33301 -144.5 -28s-88.833 -45.167 -125.5 -79.5s-65.5 -74.666 -86.5 -120.999s-31.5 -96.166 -31.5 -149.499zM139 360c0 38 7.33301 73.833 22 107.5
s35 63.167 61 88.5s55.833 45 89.5 59s68.834 21 105.501 21s71.834 -7 105.501 -21s63.5 -33.5 89.5 -58.5s46.333 -54.5 61 -88.5s22 -70 22 -108s-7.33301 -73.833 -22 -107.5s-35 -63.167 -61 -88.5s-55.833 -45 -89.5 -59s-68.834 -21 -105.501 -21
s-71.834 7 -105.501 21s-63.5 33.667 -89.5 59s-46.333 54.833 -61 88.5s-22 69.5 -22 107.5z" />
    <glyph glyph-name="Ocircumflex" unicode="&#xd4;" horiz-adv-x="834" 
d="M280 763h98l39 59l39 -59h98l-82 124h-110zM29 360c0 -53.333 10.5 -103.166 31.5 -149.499s50 -86.666 87 -120.999s78.833 -60.833 125.5 -79.5s94.667 -28 144 -28s97.5 9.33301 144.5 28s88.833 45.167 125.5 79.5s65.5 74.666 86.5 120.999
s31.5 96.166 31.5 149.499s-10.5 103.166 -31.5 149.499s-50 86.666 -87 120.999s-78.833 60.833 -125.5 79.5s-94.667 28 -144 28s-97.5 -9.33301 -144.5 -28s-88.833 -45.167 -125.5 -79.5s-65.5 -74.666 -86.5 -120.999s-31.5 -96.166 -31.5 -149.499zM139 360
c0 38 7.33301 73.833 22 107.5s35 63.167 61 88.5s55.833 45 89.5 59s68.834 21 105.501 21s71.834 -7 105.501 -21s63.5 -33.5 89.5 -58.5s46.333 -54.5 61 -88.5s22 -70 22 -108s-7.33301 -73.833 -22 -107.5s-35 -63.167 -61 -88.5s-55.833 -45 -89.5 -59
s-68.834 -21 -105.501 -21s-71.834 7 -105.501 21s-63.5 33.667 -89.5 59s-46.333 54.833 -61 88.5s-22 69.5 -22 107.5z" />
    <glyph glyph-name="Otilde" unicode="&#xd5;" horiz-adv-x="834" 
d="M314 773c14 20 30 29.999 48 29.999c9.33301 0 22.333 -4.33301 39 -13c11.333 -5.33301 21.5 -9.5 30.5 -12.5s19.5 -4.5 31.5 -4.5c20.667 0 39 7.83301 55 23.5s31.667 38.834 47 69.501l-47 21c-9.33301 -20 -23.333 -30 -42 -30c-10 0 -25.333 4.33301 -46 13
c-26 11.333 -47 17 -63 17c-21.333 0 -40.5 -8.16699 -57.5 -24.5s-30.5 -40.833 -40.5 -73.5zM29 359.999c0 -53.333 10.5 -103.166 31.5 -149.499s50 -86.666 87 -120.999s78.833 -60.833 125.5 -79.5s94.667 -28 144 -28s97.5 9.33301 144.5 28s88.833 45.167 125.5 79.5
s65.5 74.666 86.5 120.999s31.5 96.166 31.5 149.499s-10.5 103.166 -31.5 149.499s-50 86.666 -87 120.999s-78.833 60.833 -125.5 79.5s-94.667 28 -144 28s-97.5 -9.33301 -144.5 -28s-88.833 -45.167 -125.5 -79.5s-65.5 -74.666 -86.5 -120.999
s-31.5 -96.166 -31.5 -149.499zM139 359.999c0 38 7.33301 73.833 22 107.5s35 63.167 61 88.5s55.833 45 89.5 59s68.834 21 105.501 21s71.834 -7 105.501 -21s63.5 -33.5 89.5 -58.5s46.333 -54.5 61 -88.5s22 -70 22 -108s-7.33301 -73.833 -22 -107.5
s-35 -63.167 -61 -88.5s-55.833 -45 -89.5 -59s-68.834 -21 -105.501 -21s-71.834 7 -105.501 21s-63.5 33.667 -89.5 59s-46.333 54.833 -61 88.5s-22 69.5 -22 107.5z" />
    <glyph glyph-name="Odieresis" unicode="&#xd6;" horiz-adv-x="834" 
d="M281 785h102v102h-102v-102zM451 785h102v102h-102v-102zM29 360c0 -53.333 10.5 -103.166 31.5 -149.499s50 -86.666 87 -120.999s78.833 -60.833 125.5 -79.5s94.667 -28 144 -28s97.5 9.33301 144.5 28s88.833 45.167 125.5 79.5s65.5 74.666 86.5 120.999
s31.5 96.166 31.5 149.499s-10.5 103.166 -31.5 149.499s-50 86.666 -87 120.999s-78.833 60.833 -125.5 79.5s-94.667 28 -144 28s-97.5 -9.33301 -144.5 -28s-88.833 -45.167 -125.5 -79.5s-65.5 -74.666 -86.5 -120.999s-31.5 -96.166 -31.5 -149.499zM139 360
c0 38 7.33301 73.833 22 107.5s35 63.167 61 88.5s55.833 45 89.5 59s68.834 21 105.501 21s71.834 -7 105.501 -21s63.5 -33.5 89.5 -58.5s46.333 -54.5 61 -88.5s22 -70 22 -108s-7.33301 -73.833 -22 -107.5s-35 -63.167 -61 -88.5s-55.833 -45 -89.5 -59
s-68.834 -21 -105.501 -21s-71.834 7 -105.501 21s-63.5 33.667 -89.5 59s-46.333 54.833 -61 88.5s-22 69.5 -22 107.5z" />
    <glyph glyph-name="multiply" unicode="&#xd7;" horiz-adv-x="600" 
d="M245 253l-175 -174l56 -56l174 175l174 -175l56 56l-175 174l175 174l-56 56l-174 -175l-174 175l-56 -56z" />
    <glyph glyph-name="Oslash" unicode="&#xd8;" horiz-adv-x="834" 
d="M187 206c-32 46.667 -48.001 98 -48.001 154c0 38 7.33301 73.833 22 107.5s35 63.167 61 88.5s55.833 45 89.5 59s68.834 21 105.501 21c30.667 0 60.5 -5 89.5 -15s56.167 -24.667 81.5 -44zM646.999 514c32 -46.667 48.001 -98 48.001 -154
c0 -38 -7.33301 -73.833 -22 -107.5s-35 -63.167 -61 -88.5s-55.833 -45 -89.5 -59s-68.834 -21 -105.501 -21c-30.667 0 -60.5 5.16699 -89.5 15.5s-55.833 24.833 -80.5 43.5zM87 -4l82 75.0029c34 -28 72.5 -49.833 115.5 -65.5s87.167 -23.5 132.5 -23.5
c49.333 0 97.5 9.33301 144.5 28s88.833 45.167 125.5 79.5s65.5 74.666 86.5 120.999s31.5 96.166 31.5 149.499c0 43.333 -6.83301 84.166 -20.5 122.499s-33.167 73.166 -58.5 104.499l79 73l-58 64l-81 -75c-34.667 28 -73.5 49.833 -116.5 65.5
s-87.167 23.5 -132.5 23.5c-49.333 0 -97.5 -9.33301 -144.5 -28s-88.833 -45.167 -125.5 -79.5s-65.5 -74.666 -86.5 -120.999s-31.5 -96.166 -31.5 -149.499c0 -42.667 6.83301 -83.334 20.5 -122.001s33.167 -73.667 58.5 -105l-79 -73z" />
    <glyph glyph-name="Ugrave" unicode="&#xd9;" horiz-adv-x="630" 
d="M297 763h74l-58 124h-124zM464 266c0 -34 -3.83496 -63 -11.502 -87s-18.334 -43.333 -32.001 -58s-29.334 -25.167 -47.001 -31.5s-37.167 -9.5 -58.5 -9.5s-40.833 3.16699 -58.5 9.5s-33.334 16.833 -47.001 31.5s-24.334 34 -32.001 58s-11.5 53 -11.5 87v458
l-110 -8v-480c0 -44.667 7.33301 -83.334 22 -116.001s34.334 -59.167 59.001 -79.5s52.334 -35.166 83.001 -44.499s62.334 -14 95.001 -14s64.334 4.66699 95.001 14s58.334 24.166 83.001 44.499s44.334 46.833 59.001 79.5s22 71.334 22 116.001v488l-110 -8v-450z" />
    <glyph glyph-name="Uacute" unicode="&#xda;" horiz-adv-x="630" 
d="M259 763h74l108 124h-124zM464 266c0 -34 -3.83496 -63 -11.502 -87s-18.334 -43.333 -32.001 -58s-29.334 -25.167 -47.001 -31.5s-37.167 -9.5 -58.5 -9.5s-40.833 3.16699 -58.5 9.5s-33.334 16.833 -47.001 31.5s-24.334 34 -32.001 58s-11.5 53 -11.5 87v458
l-110 -8v-480c0 -44.667 7.33301 -83.334 22 -116.001s34.334 -59.167 59.001 -79.5s52.334 -35.166 83.001 -44.499s62.334 -14 95.001 -14s64.334 4.66699 95.001 14s58.334 24.166 83.001 44.499s44.334 46.833 59.001 79.5s22 71.334 22 116.001v488l-110 -8v-450z" />
    <glyph glyph-name="Ucircumflex" unicode="&#xdb;" horiz-adv-x="630" 
d="M178 763h98l39 59l39 -59h98l-82 124h-110zM464 266c0 -34 -3.83496 -63 -11.502 -87s-18.334 -43.333 -32.001 -58s-29.334 -25.167 -47.001 -31.5s-37.167 -9.5 -58.5 -9.5s-40.833 3.16699 -58.5 9.5s-33.334 16.833 -47.001 31.5s-24.334 34 -32.001 58
s-11.5 53 -11.5 87v458l-110 -8v-480c0 -44.667 7.33301 -83.334 22 -116.001s34.334 -59.167 59.001 -79.5s52.334 -35.166 83.001 -44.499s62.334 -14 95.001 -14s64.334 4.66699 95.001 14s58.334 24.166 83.001 44.499s44.334 46.833 59.001 79.5s22 71.334 22 116.001
v488l-110 -8v-450z" />
    <glyph glyph-name="Udieresis" unicode="&#xdc;" horiz-adv-x="630" 
d="M179 785h102v102h-102v-102zM349 785h102v102h-102v-102zM464 266c0 -34 -3.83496 -63 -11.502 -87s-18.334 -43.333 -32.001 -58s-29.334 -25.167 -47.001 -31.5s-37.167 -9.5 -58.5 -9.5s-40.833 3.16699 -58.5 9.5s-33.334 16.833 -47.001 31.5s-24.334 34 -32.001 58
s-11.5 53 -11.5 87v458l-110 -8v-480c0 -44.667 7.33301 -83.334 22 -116.001s34.334 -59.167 59.001 -79.5s52.334 -35.166 83.001 -44.499s62.334 -14 95.001 -14s64.334 4.66699 95.001 14s58.334 24.166 83.001 44.499s44.334 46.833 59.001 79.5s22 71.334 22 116.001
v488l-110 -8v-450z" />
    <glyph glyph-name="Yacute" unicode="&#xdd;" horiz-adv-x="519" 
d="M204 763h74l108 124h-124zM230 278l-119 -268l105 -28l320 712l-101 44l-150 -344l-209 344l-102 -44z" />
    <glyph glyph-name="Thorn" unicode="&#xde;" horiz-adv-x="519" 
d="M56 -4l110 8.00098v143c16 -2 34.333 -3 55 -3c94 0 165.167 21 213.5 63s72.5 96 72.5 162c0 63.333 -22.667 113.666 -68 150.999s-104.333 56 -177 56h-96v148l-110 -8v-720zM255 486.001c44 0 78.667 -11.5 104 -34.5s38 -52.5 38 -88.5
c0 -39.333 -13.833 -70 -41.5 -92s-65.5 -33 -113.5 -33c-32.667 0 -58 2.33301 -76 7v241h89z" />
    <glyph glyph-name="germandbls" unicode="&#xdf;" horiz-adv-x="519" 
d="M43 -4l97.9971 8.00195v508c0 45.333 9 78.666 27 99.999s43.667 32 77 32c32.667 0 58.834 -10.5 78.501 -31.5s29.5 -48.5 29.5 -82.5c0 -36 -12 -65.167 -36 -87.5s-56 -33.5 -96 -33.5c-12.667 0 -22 1.33301 -28 4v-90c18.667 1.33301 32.667 2 42 2
c46.667 0 82.834 -11.5 108.501 -34.5s38.5 -54.167 38.5 -93.5c0 -36 -11 -64.833 -33 -86.5s-50.333 -32.5 -85 -32.5c-28.667 0 -52.334 6.66699 -71.001 20v-94c14 -4.66699 29.667 -8.5 47 -11.5s34.666 -4.5 51.999 -4.5c24.667 0 48.834 5.33301 72.501 16
s44.667 25.334 63 44.001s33 40.667 44 66s16.5 52 16.5 80c0 44 -12.5 82.667 -37.5 116s-60.833 53 -107.5 59v2c30.667 13.333 56.334 33.666 77.001 60.999s31 61.666 31 102.999c0 30 -5.5 57.5 -16.5 82.5s-26.167 46.5 -45.5 64.5s-41.666 31.833 -66.999 41.5
s-52.333 14.5 -81 14.5c-58 0 -105.5 -17 -142.5 -51s-55.5 -82.333 -55.5 -145v-546z" />
    <glyph glyph-name="agrave" unicode="&#xe0;" horiz-adv-x="389" 
d="M177 446h74l-58 124h-124zM246 229c-22.667 23.333 -52.668 35 -90.001 35c-35.333 0 -65.833 -12.5 -91.5 -37.5s-38.5 -58.167 -38.5 -99.5c0 -42.667 11.333 -76.5 34 -101.5s53.667 -37.5 93 -37.5c24 0 44.333 4 61 12s28 20.333 34 37h2v-41l90 8v285
c0 35.333 -11.667 60.333 -35 75s-61.666 22 -114.999 22c-22.667 0 -51.667 -2.33301 -87 -7l-27 -90c4.66699 0.666992 11 2 19 4c34.667 6 59.667 9 75 9c28.667 0 48.5 -3.5 59.5 -10.5s16.5 -18.167 16.5 -33.5v-29zM123.999 126c0 14.667 5.5 26.334 16.5 35.001
s25.833 13 44.5 13s33.5 -4.33301 44.5 -13s16.5 -20.334 16.5 -35.001c0 -36 -20.333 -54 -61 -54s-61 18 -61 54z" />
    <glyph glyph-name="aacute" unicode="&#xe1;" horiz-adv-x="389" 
d="M139 446h74l108 124h-124zM246 229c-22.667 23.333 -52.668 35 -90.001 35c-35.333 0 -65.833 -12.5 -91.5 -37.5s-38.5 -58.167 -38.5 -99.5c0 -42.667 11.333 -76.5 34 -101.5s53.667 -37.5 93 -37.5c24 0 44.333 4 61 12s28 20.333 34 37h2v-41l90 8v285
c0 35.333 -11.667 60.333 -35 75s-61.666 22 -114.999 22c-22.667 0 -51.667 -2.33301 -87 -7l-27 -90c4.66699 0.666992 11 2 19 4c34.667 6 59.667 9 75 9c28.667 0 48.5 -3.5 59.5 -10.5s16.5 -18.167 16.5 -33.5v-29zM123.999 126c0 14.667 5.5 26.334 16.5 35.001
s25.833 13 44.5 13s33.5 -4.33301 44.5 -13s16.5 -20.334 16.5 -35.001c0 -36 -20.333 -54 -61 -54s-61 18 -61 54z" />
    <glyph glyph-name="acircumflex" unicode="&#xe2;" horiz-adv-x="389" 
d="M58 446h98l39 59l39 -59h98l-82 124h-110zM246 229c-22.667 23.333 -52.668 35 -90.001 35c-35.333 0 -65.833 -12.5 -91.5 -37.5s-38.5 -58.167 -38.5 -99.5c0 -42.667 11.333 -76.5 34 -101.5s53.667 -37.5 93 -37.5c24 0 44.333 4 61 12s28 20.333 34 37h2v-41l90 8
v285c0 35.333 -11.667 60.333 -35 75s-61.666 22 -114.999 22c-22.667 0 -51.667 -2.33301 -87 -7l-27 -90c4.66699 0.666992 11 2 19 4c34.667 6 59.667 9 75 9c28.667 0 48.5 -3.5 59.5 -10.5s16.5 -18.167 16.5 -33.5v-29zM123.999 126c0 14.667 5.5 26.334 16.5 35.001
s25.833 13 44.5 13s33.5 -4.33301 44.5 -13s16.5 -20.334 16.5 -35.001c0 -36 -20.333 -54 -61 -54s-61 18 -61 54z" />
    <glyph glyph-name="atilde" unicode="&#xe3;" horiz-adv-x="389" 
d="M92 456c14 20 30 29.999 48 29.999c9.33301 0 22.333 -4.33301 39 -13c11.333 -5.33301 21.5 -9.5 30.5 -12.5s19.5 -4.5 31.5 -4.5c20.667 0 39 7.83301 55 23.5s31.667 38.834 47 69.501l-47 21c-9.33301 -20 -23.333 -30 -42 -30c-10 0 -25.333 4.33301 -46 13
c-26 11.333 -47 17 -63 17c-21.333 0 -40.5 -8.16699 -57.5 -24.5s-30.5 -40.833 -40.5 -73.5zM246 228.999c-22.667 23.333 -52.668 35 -90.001 35c-35.333 0 -65.833 -12.5 -91.5 -37.5s-38.5 -58.167 -38.5 -99.5c0 -42.667 11.333 -76.5 34 -101.5
s53.667 -37.5 93 -37.5c24 0 44.333 4 61 12s28 20.333 34 37h2v-41l90 8v285c0 35.333 -11.667 60.333 -35 75s-61.666 22 -114.999 22c-22.667 0 -51.667 -2.33301 -87 -7l-27 -90c4.66699 0.666992 11 2 19 4c34.667 6 59.667 9 75 9c28.667 0 48.5 -3.5 59.5 -10.5
s16.5 -18.167 16.5 -33.5v-29zM123.999 125.999c0 14.667 5.5 26.334 16.5 35.001s25.833 13 44.5 13s33.5 -4.33301 44.5 -13s16.5 -20.334 16.5 -35.001c0 -36 -20.333 -54 -61 -54s-61 18 -61 54z" />
    <glyph glyph-name="adieresis" unicode="&#xe4;" horiz-adv-x="389" 
d="M59 468h102v102h-102v-102zM229 468h102v102h-102v-102zM246 229c-22.667 23.333 -52.668 35 -90.001 35c-35.333 0 -65.833 -12.5 -91.5 -37.5s-38.5 -58.167 -38.5 -99.5c0 -42.667 11.333 -76.5 34 -101.5s53.667 -37.5 93 -37.5c24 0 44.333 4 61 12s28 20.333 34 37
h2v-41l90 8v285c0 35.333 -11.667 60.333 -35 75s-61.666 22 -114.999 22c-22.667 0 -51.667 -2.33301 -87 -7l-27 -90c4.66699 0.666992 11 2 19 4c34.667 6 59.667 9 75 9c28.667 0 48.5 -3.5 59.5 -10.5s16.5 -18.167 16.5 -33.5v-29zM123.999 126
c0 14.667 5.5 26.334 16.5 35.001s25.833 13 44.5 13s33.5 -4.33301 44.5 -13s16.5 -20.334 16.5 -35.001c0 -36 -20.333 -54 -61 -54s-61 18 -61 54z" />
    <glyph glyph-name="aring" unicode="&#xe5;" horiz-adv-x="389" 
d="M102 522c0 -25.333 9.16699 -47.166 27.5 -65.499s40.166 -27.5 65.499 -27.5s47.166 9.16699 65.499 27.5s27.5 40.166 27.5 65.499s-9.16699 47.166 -27.5 65.499s-40.166 27.5 -65.499 27.5s-47.166 -9.16699 -65.499 -27.5s-27.5 -40.166 -27.5 -65.499zM152 522
c0 12 4.16699 22.167 12.5 30.5s18.5 12.5 30.5 12.5s22.167 -4.16699 30.5 -12.5s12.5 -18.5 12.5 -30.5s-4.16699 -22.167 -12.5 -30.5s-18.5 -12.5 -30.5 -12.5s-22.167 4.16699 -30.5 12.5s-12.5 18.5 -12.5 30.5zM246 229c-22.667 23.333 -52.668 35 -90.001 35
c-35.333 0 -65.833 -12.5 -91.5 -37.5s-38.5 -58.167 -38.5 -99.5c0 -42.667 11.333 -76.5 34 -101.5s53.667 -37.5 93 -37.5c24 0 44.333 4 61 12s28 20.333 34 37h2v-41l90 8v285c0 35.333 -11.667 60.333 -35 75s-61.666 22 -114.999 22
c-22.667 0 -51.667 -2.33301 -87 -7l-27 -90c4.66699 0.666992 11 2 19 4c34.667 6 59.667 9 75 9c28.667 0 48.5 -3.5 59.5 -10.5s16.5 -18.167 16.5 -33.5v-29zM123.999 126c0 14.667 5.5 26.334 16.5 35.001s25.833 13 44.5 13s33.5 -4.33301 44.5 -13
s16.5 -20.334 16.5 -35.001c0 -36 -20.333 -54 -61 -54s-61 18 -61 54z" />
    <glyph glyph-name="ae" unicode="&#xe6;" horiz-adv-x="611" 
d="M327 181c-2.66699 6 -4 13.333 -4 22c0 31.333 10.833 57 32.5 77s43.167 30 64.5 30c26 0 49.333 -7 70 -21zM63 289c4.66699 0.666992 11.002 2 19.002 4c34.667 6 59.667 9 75 9c28.667 0 48.5 -3.66699 59.5 -11s16.5 -18.333 16.5 -33v-29
c-22.667 23.333 -52.667 35 -90 35c-35.333 0 -65.833 -12.5 -91.5 -37.5s-38.5 -58.167 -38.5 -99.5c0 -42.667 11.333 -76.5 34 -101.5s53.667 -37.5 93 -37.5c22.667 0 42.167 4.16699 58.5 12.5s27.166 20.5 32.499 36.5h2v-41l84 8v32c35.333 -32 74.333 -48 117 -48
c30.667 0 58.5 4.66699 83.5 14s47.167 24.333 66.5 45l-36 85c-19.333 -21.333 -37.666 -36.666 -54.999 -45.999s-36.333 -14 -57 -14c-32.667 0 -59.334 13 -80.001 39l256 165c-21.333 40 -46.833 69.667 -76.5 89s-65.834 29 -108.501 29
c-22.667 0 -45.5 -4.16699 -68.5 -12.5s-42.167 -19.833 -57.5 -34.5c-15.333 13.333 -32.333 23.166 -51 29.499s-43 9.5 -73 9.5c-22.667 0 -51.667 -2.33301 -87 -7zM111.002 126c0 14.667 5.5 26.334 16.5 35.001s25.833 13 44.5 13s33.5 -4.33301 44.5 -13
s16.5 -20.334 16.5 -35.001c0 -36 -20.333 -54 -61 -54s-61 18 -61 54z" />
    <glyph glyph-name="ccedilla" unicode="&#xe7;" horiz-adv-x="389" 
d="M224 -180c14 18.667 24.165 39 30.498 61s9.5 42.333 9.5 61v20c-21.333 -4 -37.666 -6 -48.999 -6s-27.666 2 -48.999 6c5.33301 -16 8 -32.333 8 -49c0 -24 -11.333 -55 -34 -93h84zM368.998 347c-25.333 15.333 -48.9961 26.999 -70.9961 34.999s-47 12 -75 12
c-24.667 0 -48.834 -4.5 -72.501 -13.5s-44.834 -22.167 -63.501 -39.5s-33.5 -38.166 -44.5 -62.499s-16.5 -51.166 -16.5 -80.499c0 -64 19.167 -115 57.5 -153s87.166 -57 146.499 -57c22 0 47 4.16699 75 12.5s50.333 19.833 67 34.5l-39 84
c-16 -14.667 -31.833 -25.167 -47.5 -31.5s-33.834 -9.5 -54.501 -9.5c-30.667 0 -56.167 10 -76.5 30s-30.5 48.333 -30.5 85c0 33.333 10.5 60.166 31.5 80.499s49.167 30.5 84.5 30.5c30 0 57.333 -11.333 82 -34z" />
    <glyph glyph-name="egrave" unicode="&#xe8;" 
d="M186 446h74l-58 124h-124zM408 276c-21.333 40 -46.8291 69.6641 -76.4961 88.9971s-65.834 29 -108.501 29c-24.667 0 -48.834 -4.5 -72.501 -13.5s-44.834 -22.167 -63.501 -39.5s-33.5 -38.166 -44.5 -62.499s-16.5 -51.166 -16.5 -80.499
c0 -64 19.167 -115 57.5 -153s87.166 -57 146.499 -57c30.667 0 58.5 4.66699 83.5 14s47.167 24.333 66.5 45l-36 85c-19.333 -21.333 -37.666 -36.666 -54.999 -45.999s-36.333 -14 -57 -14c-32.667 0 -59.334 13 -80.001 39zM124.004 180.997c-2.66699 6 -4 13.333 -4 22
c0 31.333 10.833 57 32.5 77s43.167 30 64.5 30c26 0 49.333 -7 70 -21z" />
    <glyph glyph-name="eacute" unicode="&#xe9;" 
d="M148 446h74l108 124h-124zM408 276c-21.333 40 -46.8291 69.6641 -76.4961 88.9971s-65.834 29 -108.501 29c-24.667 0 -48.834 -4.5 -72.501 -13.5s-44.834 -22.167 -63.501 -39.5s-33.5 -38.166 -44.5 -62.499s-16.5 -51.166 -16.5 -80.499
c0 -64 19.167 -115 57.5 -153s87.166 -57 146.499 -57c30.667 0 58.5 4.66699 83.5 14s47.167 24.333 66.5 45l-36 85c-19.333 -21.333 -37.666 -36.666 -54.999 -45.999s-36.333 -14 -57 -14c-32.667 0 -59.334 13 -80.001 39zM124.004 180.997c-2.66699 6 -4 13.333 -4 22
c0 31.333 10.833 57 32.5 77s43.167 30 64.5 30c26 0 49.333 -7 70 -21z" />
    <glyph glyph-name="ecircumflex" unicode="&#xea;" 
d="M67 446h98l39 59l39 -59h98l-82 124h-110zM408 276c-21.333 40 -46.8291 69.6641 -76.4961 88.9971s-65.834 29 -108.501 29c-24.667 0 -48.834 -4.5 -72.501 -13.5s-44.834 -22.167 -63.501 -39.5s-33.5 -38.166 -44.5 -62.499s-16.5 -51.166 -16.5 -80.499
c0 -64 19.167 -115 57.5 -153s87.166 -57 146.499 -57c30.667 0 58.5 4.66699 83.5 14s47.167 24.333 66.5 45l-36 85c-19.333 -21.333 -37.666 -36.666 -54.999 -45.999s-36.333 -14 -57 -14c-32.667 0 -59.334 13 -80.001 39zM124.004 180.997c-2.66699 6 -4 13.333 -4 22
c0 31.333 10.833 57 32.5 77s43.167 30 64.5 30c26 0 49.333 -7 70 -21z" />
    <glyph glyph-name="edieresis" unicode="&#xeb;" 
d="M68 468h102v102h-102v-102zM238 468h102v102h-102v-102zM408 276c-21.333 40 -46.8291 69.6641 -76.4961 88.9971s-65.834 29 -108.501 29c-24.667 0 -48.834 -4.5 -72.501 -13.5s-44.834 -22.167 -63.501 -39.5s-33.5 -38.166 -44.5 -62.499
s-16.5 -51.166 -16.5 -80.499c0 -64 19.167 -115 57.5 -153s87.166 -57 146.499 -57c30.667 0 58.5 4.66699 83.5 14s47.167 24.333 66.5 45l-36 85c-19.333 -21.333 -37.666 -36.666 -54.999 -45.999s-36.333 -14 -57 -14c-32.667 0 -59.334 13 -80.001 39z
M124.004 180.997c-2.66699 6 -4 13.333 -4 22c0 31.333 10.833 57 32.5 77s43.167 30 64.5 30c26 0 49.333 -7 70 -21z" />
    <glyph glyph-name="igrave" unicode="&#xec;" horiz-adv-x="184" 
d="M74 446h74l-58 124h-124zM43 -4l98 8v382l-98 -8v-382z" />
    <glyph glyph-name="iacute" unicode="&#xed;" horiz-adv-x="184" 
d="M36 446h74l108 124h-124zM43 -4l98 8v382l-98 -8v-382z" />
    <glyph glyph-name="icircumflex" unicode="&#xee;" horiz-adv-x="184" 
d="M-45 446h98l39 59l39 -59h98l-82 124h-110zM43 -4l98 8v382l-98 -8v-382z" />
    <glyph glyph-name="idieresis" unicode="&#xef;" horiz-adv-x="184" 
d="M-44 468h102v102h-102v-102zM126 468h102v102h-102v-102zM43 -4l98 8v382l-98 -8v-382z" />
    <glyph glyph-name="eth" unicode="&#xf0;" horiz-adv-x="462" 
d="M124 191c0 32.667 10.333 59.667 31 81s46 32 76 32c30.667 0 56.167 -10.667 76.5 -32s30.5 -48.333 30.5 -81s-10.167 -59.667 -30.5 -81s-45.833 -32 -76.5 -32c-30 0 -55.333 10.667 -76 32s-31 48.333 -31 81zM90 528l49 -55.002l111 51
c20 -27.333 36.5 -55 49.5 -83s22.167 -54.333 27.5 -79l-2 -2c-11.333 12.667 -26 21.5 -44 26.5s-34.667 7.5 -50 7.5c-28.667 0 -55.5 -5.5 -80.5 -16.5s-46.833 -26 -65.5 -45s-33.167 -40.833 -43.5 -65.5s-15.5 -50 -15.5 -76s5.16699 -51.167 15.5 -75.5
s25 -46.166 44 -65.499s40.833 -34.5 65.5 -45.5s51.334 -16.5 80.001 -16.5c58 0 105.667 19.333 143 58c20 20 35.333 45.333 46 76s16 66 16 106c0 54 -8.5 110.333 -25.5 169s-43.5 113.334 -79.5 164.001l105 49l-49 55l-104 -48c-38.667 42 -85.667 76.333 -141 103
l-67 -49c49.333 -24 91.666 -54.333 126.999 -91z" />
    <glyph glyph-name="ntilde" unicode="&#xf1;" 
d="M101 456c14 20 30 29.999 48 29.999c9.33301 0 22.333 -4.33301 39 -13c11.333 -5.33301 21.5 -9.5 30.5 -12.5s19.5 -4.5 31.5 -4.5c20.667 0 39 7.83301 55 23.5s31.667 38.834 47 69.501l-47 21c-9.33301 -20 -23.333 -30 -42 -30c-10 0 -25.333 4.33301 -46 13
c-26 11.333 -47 17 -63 17c-21.333 0 -40.5 -8.16699 -57.5 -24.5s-30.5 -40.833 -40.5 -73.5zM43 -4.00098l97.998 8.00195v205c0 26 5.83301 47 17.5 63s26.834 24 45.501 24c41.333 0 62 -26.333 62 -79v-221l98 8v273c0 35.333 -11.833 63.666 -35.5 84.999
s-53.167 32 -88.5 32c-20.667 0 -39.167 -4.33301 -55.5 -13s-30.166 -23.334 -41.499 -44.001h-2v49l-98 -8v-382z" />
    <glyph glyph-name="ograve" unicode="&#xf2;" horiz-adv-x="462" 
d="M213 446h74l-58 124h-124zM231 78c-30 0 -55.333 10.667 -76 32s-31 48.333 -31 81s10.333 59.667 31 81s46 32 76 32c30.667 0 56.167 -10.667 76.5 -32s30.5 -48.333 30.5 -81s-10.167 -59.667 -30.5 -81s-45.833 -32 -76.5 -32zM26 191
c0 -26 5.16602 -51.168 15.499 -75.501s25 -46.166 44 -65.499s40.833 -34.5 65.5 -45.5s51.334 -16.5 80.001 -16.5s55.5 5.5 80.5 16.5s46.833 26 65.5 45s33.167 40.833 43.5 65.5s15.5 50 15.5 76s-5.16699 51.333 -15.5 76s-24.833 46.5 -43.5 65.5s-40.5 34 -65.5 45
s-51.833 16.5 -80.5 16.5s-55.5 -5.5 -80.5 -16.5s-46.833 -26 -65.5 -45s-33.167 -40.833 -43.5 -65.5s-15.5 -50 -15.5 -76z" />
    <glyph glyph-name="oacute" unicode="&#xf3;" horiz-adv-x="462" 
d="M175 446h74l108 124h-124zM231 78c-30 0 -55.333 10.667 -76 32s-31 48.333 -31 81s10.333 59.667 31 81s46 32 76 32c30.667 0 56.167 -10.667 76.5 -32s30.5 -48.333 30.5 -81s-10.167 -59.667 -30.5 -81s-45.833 -32 -76.5 -32zM26 191
c0 -26 5.16602 -51.168 15.499 -75.501s25 -46.166 44 -65.499s40.833 -34.5 65.5 -45.5s51.334 -16.5 80.001 -16.5s55.5 5.5 80.5 16.5s46.833 26 65.5 45s33.167 40.833 43.5 65.5s15.5 50 15.5 76s-5.16699 51.333 -15.5 76s-24.833 46.5 -43.5 65.5s-40.5 34 -65.5 45
s-51.833 16.5 -80.5 16.5s-55.5 -5.5 -80.5 -16.5s-46.833 -26 -65.5 -45s-33.167 -40.833 -43.5 -65.5s-15.5 -50 -15.5 -76z" />
    <glyph glyph-name="ocircumflex" unicode="&#xf4;" horiz-adv-x="462" 
d="M94 446h98l39 59l39 -59h98l-82 124h-110zM231 78c-30 0 -55.333 10.667 -76 32s-31 48.333 -31 81s10.333 59.667 31 81s46 32 76 32c30.667 0 56.167 -10.667 76.5 -32s30.5 -48.333 30.5 -81s-10.167 -59.667 -30.5 -81s-45.833 -32 -76.5 -32zM26 191
c0 -26 5.16602 -51.168 15.499 -75.501s25 -46.166 44 -65.499s40.833 -34.5 65.5 -45.5s51.334 -16.5 80.001 -16.5s55.5 5.5 80.5 16.5s46.833 26 65.5 45s33.167 40.833 43.5 65.5s15.5 50 15.5 76s-5.16699 51.333 -15.5 76s-24.833 46.5 -43.5 65.5s-40.5 34 -65.5 45
s-51.833 16.5 -80.5 16.5s-55.5 -5.5 -80.5 -16.5s-46.833 -26 -65.5 -45s-33.167 -40.833 -43.5 -65.5s-15.5 -50 -15.5 -76z" />
    <glyph glyph-name="otilde" unicode="&#xf5;" horiz-adv-x="462" 
d="M128 456c14 20 30 29.999 48 29.999c9.33301 0 22.333 -4.33301 39 -13c11.333 -5.33301 21.5 -9.5 30.5 -12.5s19.5 -4.5 31.5 -4.5c20.667 0 39 7.83301 55 23.5s31.667 38.834 47 69.501l-47 21c-9.33301 -20 -23.333 -30 -42 -30c-10 0 -25.333 4.33301 -46 13
c-26 11.333 -47 17 -63 17c-21.333 0 -40.5 -8.16699 -57.5 -24.5s-30.5 -40.833 -40.5 -73.5zM231 77.999c-30 0 -55.333 10.667 -76 32s-31 48.333 -31 81s10.333 59.667 31 81s46 32 76 32c30.667 0 56.167 -10.667 76.5 -32s30.5 -48.333 30.5 -81
s-10.167 -59.667 -30.5 -81s-45.833 -32 -76.5 -32zM26 190.999c0 -26 5.16602 -51.168 15.499 -75.501s25 -46.166 44 -65.499s40.833 -34.5 65.5 -45.5s51.334 -16.5 80.001 -16.5s55.5 5.5 80.5 16.5s46.833 26 65.5 45s33.167 40.833 43.5 65.5s15.5 50 15.5 76
s-5.16699 51.333 -15.5 76s-24.833 46.5 -43.5 65.5s-40.5 34 -65.5 45s-51.833 16.5 -80.5 16.5s-55.5 -5.5 -80.5 -16.5s-46.833 -26 -65.5 -45s-33.167 -40.833 -43.5 -65.5s-15.5 -50 -15.5 -76z" />
    <glyph glyph-name="odieresis" unicode="&#xf6;" horiz-adv-x="462" 
d="M95 468h102v102h-102v-102zM265 468h102v102h-102v-102zM231 78c-30 0 -55.333 10.667 -76 32s-31 48.333 -31 81s10.333 59.667 31 81s46 32 76 32c30.667 0 56.167 -10.667 76.5 -32s30.5 -48.333 30.5 -81s-10.167 -59.667 -30.5 -81s-45.833 -32 -76.5 -32zM26 191
c0 -26 5.16602 -51.168 15.499 -75.501s25 -46.166 44 -65.499s40.833 -34.5 65.5 -45.5s51.334 -16.5 80.001 -16.5s55.5 5.5 80.5 16.5s46.833 26 65.5 45s33.167 40.833 43.5 65.5s15.5 50 15.5 76s-5.16699 51.333 -15.5 76s-24.833 46.5 -43.5 65.5s-40.5 34 -65.5 45
s-51.833 16.5 -80.5 16.5s-55.5 -5.5 -80.5 -16.5s-46.833 -26 -65.5 -45s-33.167 -40.833 -43.5 -65.5s-15.5 -50 -15.5 -76z" />
    <glyph glyph-name="divide" unicode="&#xf7;" horiz-adv-x="600" 
d="M47 211h506v84h-506v-84zM229 46c0 -19.333 7 -36 21 -50s30.667 -21 50 -21s36 7 50 21s21 30.667 21 50s-7 36 -21 50s-30.667 21 -50 21s-36 -7 -50 -21s-21 -30.667 -21 -50zM229 460c0 -19.333 7 -36 21 -50s30.667 -21 50 -21s36 7 50 21s21 30.667 21 50
s-7 36 -21 50s-30.667 21 -50 21s-36 -7 -50 -21s-21 -30.667 -21 -50z" />
    <glyph glyph-name="oslash" unicode="&#xf8;" horiz-adv-x="462" 
d="M330 234c5.33301 -12.667 7.99902 -27 7.99902 -43c0 -32.667 -10.167 -59.667 -30.5 -81s-45.833 -32 -76.5 -32c-19.333 0 -36.666 4.66699 -51.999 14zM61.999 -18l49 46c36 -26.667 76 -40 120 -40c28.667 0 55.5 5.5 80.5 16.5s46.833 26 65.5 45
s33.167 40.833 43.5 65.5s15.5 50 15.5 76c0 40 -11.333 77 -34 111l48 45l-48 53l-49 -46c-37.333 26.667 -78 40 -122 40c-28.667 0 -55.5 -5.5 -80.5 -16.5s-46.833 -26 -65.5 -45s-33.167 -40.833 -43.5 -65.5s-15.5 -50 -15.5 -76c0 -38.667 11.667 -75.667 35 -111
l-49 -47zM131.999 146c-5.33301 14 -8 29 -8 45c0 32.667 10.333 59.667 31 81s46 32 76 32c21.333 0 39 -5 53 -15z" />
    <glyph glyph-name="ugrave" unicode="&#xf9;" 
d="M186 446h74l-58 124h-124zM43 105c0 -35.333 11.835 -63.6689 35.502 -85.002s53.167 -32 88.5 -32c20.667 0 39.167 4.33301 55.5 13s30.166 23.334 41.499 44.001h2v-49l98 8v382l-98 -8v-205c0 -25.333 -5.83301 -46.166 -17.5 -62.499s-26.834 -24.5 -45.501 -24.5
c-41.333 0 -62 26.333 -62 79v221l-98 -8v-273z" />
    <glyph glyph-name="uacute" unicode="&#xfa;" 
d="M148 446h74l108 124h-124zM43 105c0 -35.333 11.835 -63.6689 35.502 -85.002s53.167 -32 88.5 -32c20.667 0 39.167 4.33301 55.5 13s30.166 23.334 41.499 44.001h2v-49l98 8v382l-98 -8v-205c0 -25.333 -5.83301 -46.166 -17.5 -62.499s-26.834 -24.5 -45.501 -24.5
c-41.333 0 -62 26.333 -62 79v221l-98 -8v-273z" />
    <glyph glyph-name="ucircumflex" unicode="&#xfb;" 
d="M67 446h98l39 59l39 -59h98l-82 124h-110zM43 105c0 -35.333 11.835 -63.6689 35.502 -85.002s53.167 -32 88.5 -32c20.667 0 39.167 4.33301 55.5 13s30.166 23.334 41.499 44.001h2v-49l98 8v382l-98 -8v-205c0 -25.333 -5.83301 -46.166 -17.5 -62.499
s-26.834 -24.5 -45.501 -24.5c-41.333 0 -62 26.333 -62 79v221l-98 -8v-273z" />
    <glyph glyph-name="udieresis" unicode="&#xfc;" 
d="M68 468h102v102h-102v-102zM238 468h102v102h-102v-102zM43 105c0 -35.333 11.835 -63.6689 35.502 -85.002s53.167 -32 88.5 -32c20.667 0 39.167 4.33301 55.5 13s30.166 23.334 41.499 44.001h2v-49l98 8v382l-98 -8v-205c0 -25.333 -5.83301 -46.166 -17.5 -62.499
s-26.834 -24.5 -45.501 -24.5c-41.333 0 -62 26.333 -62 79v221l-98 -8v-273z" />
    <glyph glyph-name="yacute" unicode="&#xfd;" 
d="M148 446h74l108 124h-124zM146 41l-98 -202l104 -8l264 545l-99 18l-113 -239l-114 239l-99 -18z" />
    <glyph glyph-name="thorn" unicode="&#xfe;" horiz-adv-x="481" 
d="M43 -169l98 8v195c18.667 -18 37.5 -30.167 56.5 -36.5s39.5 -9.5 61.5 -9.5c54.667 0 101 18 139 54s57 85.667 57 149s-19 113 -57 149s-84.333 54 -139 54c-21.333 0 -42.5 -4.83301 -63.5 -14.5s-39.167 -23.5 -54.5 -41.5v386l-98 -8v-885zM141 191
c0 32 10.167 58.833 30.5 80.5s45.5 32.5 75.5 32.5c31.333 0 57.5 -10.667 78.5 -32s31.5 -48.333 31.5 -81s-10.5 -59.667 -31.5 -81s-47.167 -32 -78.5 -32c-30 0 -55.167 10.833 -75.5 32.5s-30.5 48.5 -30.5 80.5z" />
    <glyph glyph-name="ydieresis" unicode="&#xff;" 
d="M68 468h102v102h-102v-102zM238 468h102v102h-102v-102zM146 41l-98 -202l104 -8l264 545l-99 18l-113 -239l-114 239l-99 -18z" />
    <glyph glyph-name="OE" unicode="&#x152;" horiz-adv-x="1130" 
d="M695 0l372.997 -0.00488281l42 98h-305v223h217v94h-217v207h270l-26 98h-354v-98c-37.333 36 -79.666 64.333 -126.999 85s-97.666 31 -150.999 31c-49.333 0 -97.5 -9.33301 -144.5 -28s-88.833 -45.167 -125.5 -79.5s-65.5 -74.666 -86.5 -120.999
s-31.5 -96.166 -31.5 -149.499s10.5 -103.166 31.5 -149.499s50 -86.666 87 -120.999s78.833 -60.833 125.5 -79.5s94.667 -28 144 -28c56.667 0 107.834 10.333 153.501 31s87.167 50.334 124.5 89.001v-102zM138.997 359.995c0 38 7.33301 73.833 22 107.5
s35 63.167 61 88.5s55.833 45 89.5 59s68.834 21 105.501 21s71.834 -7 105.501 -21s63.5 -33.5 89.5 -58.5s46.333 -54.5 61 -88.5s22 -70 22 -108s-7.33301 -73.833 -22 -107.5s-35 -63.167 -61 -88.5s-55.833 -45 -89.5 -59s-68.834 -21 -105.501 -21
s-71.834 7 -105.501 21s-63.5 33.667 -89.5 59s-46.333 54.833 -61 88.5s-22 69.5 -22 107.5z" />
    <glyph glyph-name="oe" unicode="&#x153;" horiz-adv-x="722" 
d="M436 181c-2.66699 6 -4 13.333 -4 22c0 32 10.833 57.833 32.5 77.5s44.167 29.5 67.5 29.5c26 0 49.333 -7 70 -21zM723 276c-21.333 40 -46.834 69.667 -76.501 89s-65.834 29 -108.501 29c-30 0 -56.833 -5.66699 -80.5 -17s-47.834 -29 -72.501 -53
c-22.667 23.333 -46.167 40.833 -70.5 52.5s-52.166 17.5 -83.499 17.5c-28.667 0 -55.5 -5.5 -80.5 -16.5s-46.833 -26 -65.5 -45s-33.167 -40.833 -43.5 -65.5s-15.5 -50 -15.5 -76s5.16699 -51.167 15.5 -75.5s25 -46.166 44 -65.499s40.833 -34.5 65.5 -45.5
s51.334 -16.5 80.001 -16.5c34.667 0 65.167 7.16699 91.5 21.5s49.166 33.166 68.499 56.499c14.667 -24.667 35.334 -43.834 62.001 -57.501s57.334 -20.5 92.001 -20.5c30.667 0 58.5 4.66699 83.5 14s47.167 24.333 66.5 45l-36 85
c-19.333 -21.333 -37.666 -36.666 -54.999 -45.999s-36.333 -14 -57 -14c-32.667 0 -59.334 13 -80.001 39zM123.999 191c0 32.667 10.333 59.667 31 81s46 32 76 32c30.667 0 56.167 -10.667 76.5 -32s30.5 -48.333 30.5 -81s-10.167 -59.667 -30.5 -81
s-45.833 -32 -76.5 -32c-30 0 -55.333 10.667 -76 32s-31 48.333 -31 81z" />
    <glyph glyph-name="Scaron" unicode="&#x160;" horiz-adv-x="500" 
d="M195 763h110l82 124h-98l-39 -59l-39 59h-98zM467 623c-26 36 -55.501 64.167 -88.501 84.5s-71.167 30.5 -114.5 30.5c-30.667 0 -59.667 -5.16699 -87 -15.5s-51.166 -25 -71.499 -44s-36.166 -41.167 -47.499 -66.5s-17 -52.666 -17 -81.999c0 -34 5.33301 -63 16 -87
s24.667 -43.667 42 -59s35.5 -27.5 54.5 -36.5s43.833 -19.167 74.5 -30.5c23.333 -8.66699 41.833 -16 55.5 -22s26.5 -13.5 38.5 -22.5s21.5 -19.833 28.5 -32.5s10.5 -27.667 10.5 -45c0 -31.333 -10.667 -58.333 -32 -81s-47.666 -34 -78.999 -34
c-26.667 0 -52.167 8.83301 -76.5 26.5s-46.5 42.167 -66.5 73.5l-78 -77c54.667 -80.667 127 -121 217 -121c32 0 61.667 5.66699 89 17s51.166 27.166 71.499 47.499s36.166 43.833 47.499 70.5s17 55 17 85c0 33.333 -5.33301 61.666 -16 84.999s-25 42.833 -43 58.5
s-36.5 28.167 -55.5 37.5s-43.833 20 -74.5 32c-23.333 8.66699 -41.666 16.167 -54.999 22.5s-25.333 13.5 -36 21.5c-26.667 19.333 -40 44 -40 74c0 32 10.667 57.833 32 77.5s47.666 29.5 78.999 29.5c25.333 0 48.833 -7.66699 70.5 -23s43.167 -37.666 64.5 -66.999z
" />
    <glyph glyph-name="scaron" unicode="&#x161;" horiz-adv-x="315" 
d="M103 446h110l82 124h-98l-39 -59l-39 59h-98zM284 317c-13.333 22 -30.9971 40.3291 -52.9971 54.9961s-45 22 -69 22c-37.333 0 -68.333 -12.5 -93 -37.5s-37 -55.167 -37 -90.5c0 -16.667 2.83301 -31 8.5 -43s13.167 -21.833 22.5 -29.5s19 -13.667 29 -18
s23 -9.16602 39 -14.499c22 -8 38.167 -15.333 48.5 -22s15.5 -17 15.5 -31c0 -13.333 -4.16699 -23.666 -12.5 -30.999s-18.833 -11 -31.5 -11c-13.333 0 -25.833 3.83301 -37.5 11.5s-21.834 17.167 -30.501 28.5l-57 -66c32.667 -34.667 72 -52 118 -52
c40.667 0 75 12.833 103 38.5s42 57.5 42 95.5c0 20 -3 36.833 -9 50.5s-13.833 24.334 -23.5 32.001s-19.5 13.5 -29.5 17.5s-23.333 8.66699 -40 14c-21.333 6 -36.833 12 -46.5 18s-14.5 15.667 -14.5 29c0 10.667 3.66699 18.834 11 24.501s16.666 8.5 27.999 8.5
s22.166 -4.16699 32.499 -12.5s19.5 -21.833 27.5 -40.5z" />
    <glyph glyph-name="Ydieresis" unicode="&#x178;" horiz-adv-x="519" 
d="M124 785h102v102h-102v-102zM294 785h102v102h-102v-102zM230 278l-119 -268l105 -28l320 712l-101 44l-150 -344l-209 344l-102 -44z" />
    <glyph glyph-name="florin" unicode="&#x192;" horiz-adv-x="520" 
d="M156 80c-8 -49.333 -19.8291 -83.167 -35.4961 -101.5s-37.834 -27.5 -66.501 -27.5c-13.333 0 -25 1.66699 -35 5l-23 -80c21.333 -6 40.666 -9 57.999 -9c53.333 0 97.166 15.5 131.499 46.5s57.5 81.5 69.5 151.5l41 243h84l12 74h-83
c5.33301 57.333 17.166 96.5 35.499 117.5s42.5 31.5 72.5 31.5c4 0 10.667 -0.666992 20 -2l10 -1l23 73c-8 5.33301 -17.167 9 -27.5 11s-21.5 3 -33.5 3c-46.667 0 -86.5 -14.5 -119.5 -43.5s-54.5 -65.5 -64.5 -109.5l-18 -80h-76l-12 -74h75z" />
    <glyph glyph-name="circumflex" unicode="&#x2c6;" horiz-adv-x="184" 
d="M-45 446h98l39 59l39 -59h98l-82 124h-110z" />
    <glyph glyph-name="tilde" unicode="&#x2dc;" horiz-adv-x="184" 
d="M-11 456c14 20 30 29.999 48 29.999c9.33301 0 22.333 -4.33301 39 -13c11.333 -5.33301 21.5 -9.5 30.5 -12.5s19.5 -4.5 31.5 -4.5c20.667 0 39 7.83301 55 23.5s31.667 38.834 47 69.501l-47 21c-9.33301 -20 -23.333 -30 -42 -30c-10 0 -25.333 4.33301 -46 13
c-26 11.333 -47 17 -63 17c-21.333 0 -40.5 -8.16699 -57.5 -24.5s-30.5 -40.833 -40.5 -73.5z" />
    <glyph glyph-name="endash" unicode="&#x2013;" horiz-adv-x="500" 
d="M0 167h500v84h-500v-84z" />
    <glyph glyph-name="emdash" unicode="&#x2014;" horiz-adv-x="1000" 
d="M0 167h1000v84h-1000v-84z" />
    <glyph glyph-name="quoteleft" unicode="&#x2018;" horiz-adv-x="240" 
d="M12 457h110l106 263h-90z" />
    <glyph glyph-name="quoteright" unicode="&#x2019;" horiz-adv-x="240" 
d="M12 457h90l126 263h-110z" />
    <glyph glyph-name="quotesinglbase" unicode="&#x201a;" horiz-adv-x="240" 
d="M12 -121h90l126 263h-110z" />
    <glyph glyph-name="quotedblleft" unicode="&#x201c;" 
d="M187 457h110l106 263h-90zM4 457h110l106 263h-90z" />
    <glyph glyph-name="quotedblright" unicode="&#x201d;" 
d="M4 457h90l126 263h-110zM187 457h90l126 263h-110z" />
    <glyph glyph-name="quotedblbase" unicode="&#x201e;" 
d="M4 -121h90l126 263h-110zM187 -121h90l126 263h-110z" />
    <glyph glyph-name="dagger" unicode="&#x2020;" horiz-adv-x="480" 
d="M193 446h-120v-84h120v-466l94 8v458h120v84h-120v169l-94 -8v-161z" />
    <glyph glyph-name="daggerdbl" unicode="&#x2021;" horiz-adv-x="480" 
d="M195 36v-140l90 8v132h122v84h-122v271h122v84h-122v140l-90 -8v-132h-122v-84h122v-271h-122v-84h122z" />
    <glyph glyph-name="bullet" unicode="&#x2022;" horiz-adv-x="500" 
d="M70 360c0 -24.667 4.66699 -47.834 14 -69.501s22.333 -40.834 39 -57.501s35.834 -29.667 57.501 -39s44.834 -14 69.501 -14s47.834 4.66699 69.501 14s40.834 22.333 57.501 39s29.667 35.834 39 57.501s14 44.834 14 69.501s-4.66699 47.834 -14 69.501
s-22.333 40.834 -39 57.501s-35.834 29.667 -57.501 39s-44.834 14 -69.501 14s-47.834 -4.66699 -69.501 -14s-40.834 -22.333 -57.501 -39s-29.667 -35.834 -39 -57.501s-14 -44.834 -14 -69.501z" />
    <glyph glyph-name="ellipsis" unicode="&#x2026;" horiz-adv-x="1000" 
d="M112 0h110v110h-110v-110zM445 0h110v110h-110v-110zM778 0h110v110h-110v-110z" />
    <glyph glyph-name="perthousand" unicode="&#x2030;" horiz-adv-x="963" 
d="M691 148c0 -50 11.833 -89.5 35.5 -118.5s53.5 -43.5 89.5 -43.5s65.833 14.5 89.5 43.5s35.5 68.5 35.5 118.5s-11.833 89.5 -35.5 118.5s-53.5 43.5 -89.5 43.5s-65.833 -14.5 -89.5 -43.5s-35.5 -68.5 -35.5 -118.5zM759 148c0 32.667 5.16699 57.834 15.5 75.501
s24.166 26.5 41.499 26.5s31.166 -8.83301 41.499 -26.5s15.5 -42.834 15.5 -75.501s-5.16699 -57.834 -15.5 -75.501s-24.166 -26.5 -41.499 -26.5s-31.166 8.83301 -41.499 26.5s-15.5 42.834 -15.5 75.501zM22 453c0 -50 11.833 -89.5 35.5 -118.5s53.5 -43.5 89.5 -43.5
s65.833 14.5 89.5 43.5s35.5 68.5 35.5 118.5s-11.833 89.5 -35.5 118.5s-53.5 43.5 -89.5 43.5s-65.833 -14.5 -89.5 -43.5s-35.5 -68.5 -35.5 -118.5zM90 453c0 32.667 5.16699 57.834 15.5 75.501s24.166 26.5 41.499 26.5s31.166 -8.83301 41.499 -26.5
s15.5 -42.834 15.5 -75.501s-5.16699 -57.834 -15.5 -75.501s-24.166 -26.5 -41.499 -26.5s-31.166 8.83301 -41.499 26.5s-15.5 42.834 -15.5 75.501zM376 148c0 -50 11.833 -89.5 35.5 -118.5s53.5 -43.5 89.5 -43.5s65.833 14.5 89.5 43.5s35.5 68.5 35.5 118.5
s-11.833 89.5 -35.5 118.5s-53.5 43.5 -89.5 43.5s-65.833 -14.5 -89.5 -43.5s-35.5 -68.5 -35.5 -118.5zM444 148c0 32.667 5.16699 57.834 15.5 75.501s24.166 26.5 41.499 26.5s31.166 -8.83301 41.499 -26.5s15.5 -42.834 15.5 -75.501s-5.16699 -57.834 -15.5 -75.501
s-24.166 -26.5 -41.499 -26.5s-31.166 8.83301 -41.499 26.5s-15.5 42.834 -15.5 75.501zM104 -25h68l373 651h-68z" />
    <glyph glyph-name="guilsinglleft" unicode="&#x2039;" horiz-adv-x="260" 
d="M156 64l70 40l-90 105l90 105l-70 40l-122 -145z" />
    <glyph glyph-name="guilsinglright" unicode="&#x203a;" horiz-adv-x="260" 
d="M124 209l-90 -105l70 -40l122 145l-122 145l-70 -40z" />
    <glyph glyph-name="trademark" unicode="&#x2122;" horiz-adv-x="990" 
d="M182 308h84v344h124v68h-332v-68h124v-344zM854 308h78v412h-117l-112 -294l-112 294h-117v-412h78v328h2l121 -328h56l121 328h2v-328z" />
    </font>
</defs>
</svg>
